<svg width="178" height="142" fill="none" xmlns="http://www.w3.org/2000/svg"><g clip-path="url(#clip0_1617_19661)"><path d="M107.525 21.403C33.1 60.773 3.903 57.263 1.812 44.323-.36 30.9 42.359 22.431 31.797 62.911c-10.38 39.779 55.126 41.865 75.988 18.408" stroke="#DCDEF7" stroke-width="1.5" stroke-linecap="round" stroke-linejoin="round" stroke-dasharray="5.8 5.8"/><path d="M129.827 133.646c1.36-2.516 6.585-8.422 16.356-10.254 1.599-.3 5.149-.965 6.436-.08 2.556 1.76-8.856 8.625-7.374 9.539 1.575.972 15.013-6.262 17.295-5.087 1.072.552-9.268 5.039-8.983 11.128.065 1.376.649 2.52 1.207 3.339h-27.911s-.377-2.385 2.974-8.585z" fill="#25B578"/><path d="M148.374 73.7l-8.914-1.1-8.636 69.307h8.777l8.773-68.206z" fill="#363D8E"/><path d="M165.278 54.536l-.847-.105-36.922-4.564-4.932 39.253 22.519 2.783 14.403 1.78 15.251 1.885 3.137-24.968c.991-7.89-4.654-15.082-12.608-16.065h-.001z" fill="#C4C8F2"/><path d="M140.54 65.986l-3.137 24.967-29.654-3.665 3.137-24.968c.992-7.89 8.244-13.488 16.199-12.505l.847.105c1.453.18 2.828.566 4.1 1.127 5.694 2.506 9.318 8.49 8.508 14.939z" fill="#C4C8F2"/><path d="M140.54 65.986l-3.137 24.967-20.453-2.528 3.137-24.967c.811-6.45 5.805-11.368 11.945-12.411 5.695 2.506 9.318 8.49 8.508 14.939z" fill="#363D8E"/><path d="M137.403 90.953l-29.653-3.665-12.672 19.002c-4.004 6.004-.801 11.669 7.153 12.652l.847.104c7.955.983 17.649-3.087 21.653-9.091l12.672-19.002zm-35.761-33.328c.429.3 21.79 15.084 30.616 17.196l-30.187-16.896" fill="#979CD3"/><path d="M132.258 74.821c-1.645-1.554-.431-7.37-.431-7.37-5.221 1.62-11.896-.236-17.64-2.755 8.427 6.67 18.071 10.125 18.071 10.125z" fill="#EDEEFF"/><path d="M101.642 57.624s5.591 4.022 12.545 7.072c-2.009-1.59-3.949-3.363-5.673-5.316l-6.872-1.756zM79.836 80.678c.523.055 26.438 2.654 35.184.237l-34.661-.183" fill="#979CD3"/><path d="M115.02 80.915c-2.199-.563-3.994-6.23-3.994-6.23-3.765 3.937-10.506 5.538-16.76 6.112 10.634 1.757 20.754.118 20.754.118z" fill="#EDEEFF"/><path d="M79.836 80.677s6.858.813 14.43.12c-2.536-.42-5.101-1.031-7.565-1.904l-6.865 1.784zm-56.773 42.545c1.137-.064 57.531-3.496 75.404-11.704L24.2 123.158" fill="#979CD3"/><path d="M98.467 111.517c-4.907-.442-10.75-11.95-10.75-11.95-6.67 9.736-20.536 15.504-33.723 18.902 23.386.071 44.473-6.952 44.473-6.952z" fill="#EDEEFF"/><path d="M23.063 123.222s14.967-.64 30.931-4.753c-5.576-.017-11.282-.435-16.865-1.45l-14.066 6.203zM-2.45 133.719c.65.113 32.923 5.554 44.098 3.262l-43.448-3.15" fill="#979CD3"/><path d="M41.648 136.982c-2.71-.891-4.475-8.149-4.475-8.149-5.058 4.621-13.648 6.06-21.54 6.252 13.184 3.1 26.015 1.897 26.015 1.897z" fill="#EDEEFF"/><path d="M-2.45 133.719s8.53 1.597 18.083 1.365c-3.144-.739-6.307-1.721-9.322-3.024l-8.76 1.659z" fill="#979CD3"/><path d="M144.829 1.999l-37.112 10.295-4.412 5.76L144.829 2z" fill="#4050FF"/><path d="M144.829 1.999l-37.112 10.295-4.412 5.76L144.829 2z" fill="#C4C8F2"/><path d="M144.826 1.999l-37.106 10.29 2.715 7.155 34.391-17.445z" fill="#fff"/><path d="M144.826 1.999l-37.106 10.29 2.715 7.155 34.391-17.445z" fill="#363D8E" fill-opacity=".8"/><path d="M144.826 1.999L114.6 13.398l-4.164 6.044L144.826 2z" fill="#4050FF"/><path d="M144.826 1.999L114.6 13.398l-4.164 6.044L144.826 2z" fill="#C4C8F2"/><path d="M144.827 1.999l-30.226 11.396 7.008 6.496L144.827 2z" fill="#979CD3"/><path d="M152.969 111.008c2.141 0 3.877-1.721 3.877-3.845 0-2.123-1.736-3.845-3.877-3.845s-3.876 1.722-3.876 3.845c0 2.124 1.735 3.845 3.876 3.845z" fill="#fff"/></g><defs><clipPath id="clip0_1617_19661"><path fill="#fff" transform="translate(0 .976)" d="M0 0h178v141.024H0z"/></clipPath></defs></svg>