<svg width="212" height="38" fill="none" xmlns="http://www.w3.org/2000/svg"><path d="M17.105 32.815a2.62 2.62 0 011.227-.305h21.2c.429 0 .85.104 1.227.305 2.365 1.258 1.46 4.8-1.226 4.8h-21.2c-2.687 0-3.592-3.542-1.228-4.8zM9.211 23.88c.37-.2.786-.306 1.207-.306h37.029c.421 0 .835.105 1.206.306 2.326 1.258 1.436 4.8-1.206 4.8h-37.03c-2.641 0-3.531-3.542-1.206-4.8zM6.712 1.82c-.408.379-.76.825-1.037 1.327L.887 11.804c-1.972 3.566.609 7.94 4.686 7.94h46.719c4.077 0 6.658-4.374 4.685-7.94l-4.788-8.657a5.345 5.345 0 00-1.148-1.428c-4.6 2.884-16.102 9.685-22.244 9.685-6.073 0-17.382-6.646-22.085-9.584z" fill="#211F9A"/><path d="M8.715.644c5.069 3.077 14.758 8.5 20.081 8.5 5.355 0 15.13-5.488 20.173-8.555a5.352 5.352 0 00-1.465-.204H10.36a5.35 5.35 0 00-1.645.259z" fill="#211F9A"/><path d="M70.025 18.375h9.785v-2.463h-6.922v-4.238h5.302V9.21h-5.302V5.084h6.567V2.621h-9.43v15.754zm10.699-3.262c0 2.263 1.82 3.528 3.839 3.528 2.574 0 3.46-1.997 3.439-1.997h.044s-.044.355-.044.799v.932h2.596v-7.078c0-2.863-1.731-4.504-4.704-4.504-2.685 0-4.438 1.397-4.438 1.397l1.065 2.02s1.487-1.088 3.107-1.088c1.242 0 2.174.51 2.174 1.997v.155h-.377c-1.842 0-6.7.245-6.7 3.839zm2.84-.133c0-1.575 2.33-1.775 3.772-1.775h.488v.266c0 1.376-1.065 2.973-2.551 2.973-1.154 0-1.709-.71-1.709-1.464zm8.346 1.997s1.576 1.664 4.394 1.664c2.685 0 4.327-1.509 4.327-3.395 0-3.639-5.503-3.439-5.503-5.037 0-.71.71-1.02 1.442-1.02 1.731 0 2.774.976 2.774.976l1.043-2.086s-1.243-1.286-3.795-1.286c-2.44 0-4.326 1.22-4.326 3.328 0 3.638 5.502 3.417 5.502 5.103 0 .665-.687 1.02-1.486 1.02-1.842 0-3.084-1.242-3.084-1.242l-1.287 1.975z" fill="#09092C"/><path d="M100.7 22.302s.999.732 2.352.732c1.709 0 3.284-.887 4.083-2.95l5.059-13.025h-3.084l-2.219 6.567c-.2.6-.377 1.487-.377 1.487h-.045s-.199-.932-.421-1.531l-2.374-6.523h-3.173l4.77 11.138-.422.998c-.421.999-1.175 1.465-1.952 1.465-.643 0-1.265-.466-1.265-.466l-.932 2.108zm27.55-19.681h-2.485l-2.84 10.894c-.244.91-.266 1.665-.288 1.665h-.045s-.066-.777-.266-1.665l-2.485-10.894h-2.951l3.949 15.754h3.306l2.419-9.32c.266-1.02.399-2.063.399-2.063h.044s.133 1.043.4 2.064l2.418 9.319h3.306l4.061-15.754h-2.951l-2.596 10.894c-.2.888-.267 1.665-.267 1.665h-.044c-.022 0-.044-.755-.288-1.665L128.25 2.621zm10.824 15.754h2.862v-5.436h3.217c2.951 0 5.015-2.13 5.015-5.192 0-3.062-2.064-5.126-5.015-5.126h-6.079v15.754zm2.862-7.921v-5.37h2.729c1.62 0 2.596 1.043 2.596 2.663 0 1.642-.976 2.707-2.64 2.707h-2.685zm13.632 6.035s1.931 2.152 5.437 2.152c3.284 0 5.191-2.108 5.191-4.615 0-5.037-7.41-4.349-7.41-7.145 0-1.11 1.043-1.886 2.374-1.886 1.975 0 3.483 1.376 3.483 1.376l1.243-2.33s-1.597-1.686-4.704-1.686c-3.017 0-5.28 1.953-5.28 4.57 0 4.838 7.433 4.35 7.433 7.167 0 1.287-1.088 1.908-2.286 1.908-2.219 0-3.927-1.664-3.927-1.664l-1.554 2.153zm12.331 1.886h2.862l.665-8.809c.067-1.043.023-2.463.023-2.463h.044s.488 1.553.865 2.463l2.53 6.102h2.507l2.552-6.102c.377-.91.843-2.44.843-2.44h.044s-.044 1.397.023 2.44l.665 8.809h2.84L183.097 2.62h-3.061l-3.085 7.788a45.363 45.363 0 00-.776 2.308h-.045s-.443-1.376-.798-2.308l-3.085-7.788h-3.061l-1.287 15.754zm22.563 0h2.862V5.085h5.17V2.62h-13.202v2.463h5.17v13.29zm9.442 0h2.862v-5.436h3.217c2.952 0 5.015-2.13 5.015-5.192 0-3.062-2.063-5.126-5.015-5.126h-6.079v15.754zm2.862-7.921v-5.37h2.729c1.62 0 2.596 1.043 2.596 2.663 0 1.642-.976 2.707-2.64 2.707h-2.685z" fill="#09092C"/><path d="M70.025 33.408c0 1.197 1.008 1.825 2.039 1.825 1.434 0 1.92-1.185 1.92-1.185h.024s-.024.201-.024.474v.569h1.067v-3.793c0-1.517-.854-2.347-2.37-2.347-1.376 0-2.24.711-2.24.711l.473.842s.747-.58 1.671-.58c.759 0 1.316.331 1.316 1.315v.107h-.26c-1.008 0-3.616.082-3.616 2.062zm1.162-.06c0-1.078 1.564-1.137 2.43-1.137h.296v.19c0 .888-.628 1.908-1.6 1.908-.747 0-1.126-.474-1.126-.96z" fill="#5F5F76"/><path d="M78.917 34.119s1.031 1.15 2.904 1.15c1.754 0 2.774-1.126 2.774-2.466 0-2.69-3.96-2.323-3.96-3.816 0-.593.558-1.008 1.269-1.008 1.055 0 1.86.735 1.86.735l.665-1.244s-.854-.901-2.513-.901c-1.612 0-2.821 1.043-2.821 2.442 0 2.583 3.97 2.323 3.97 3.828 0 .687-.58 1.02-1.22 1.02-1.186 0-2.098-.89-2.098-.89l-.83 1.15zm6.183-2.015c0 1.719 1.245 3.165 3.248 3.165 1.506 0 2.43-.866 2.43-.866l-.58-1.078s-.771.663-1.743.663c-.9 0-1.719-.545-1.814-1.6h4.172s.036-.402.036-.58c0-1.6-.936-2.869-2.678-2.869-1.802 0-3.07 1.304-3.07 3.165zm1.589-.747c.142-.782.676-1.256 1.446-1.256.663 0 1.173.439 1.197 1.256h-2.643zm5.046 3.769h1.505v-2.773c0-.285.023-.557.107-.806.225-.723.817-1.233 1.623-1.233.77 0 .96.498.96 1.233v3.58h1.494v-3.888c0-1.6-.759-2.3-2.098-2.3-1.22 0-1.884.747-2.146 1.257h-.023s.023-.19.023-.415v-.7h-1.445v6.045zm6.498-3.022c0 1.873 1.043 3.165 2.679 3.165 1.387 0 1.896-1.032 1.896-1.032h.024s-.024.166-.024.392v.497h1.422v-8.415h-1.505v2.655c0 .19.012.344.012.344h-.024s-.414-.77-1.742-.77c-1.6 0-2.738 1.244-2.738 3.164zm1.517 0c0-1.197.687-1.873 1.517-1.873 1.008 0 1.506.925 1.506 1.861 0 1.34-.735 1.908-1.518 1.908-.889 0-1.505-.746-1.505-1.896zm6.025 3.022h5.168v-1.315h-3.639v-7.1h-1.529v8.415zm5.287-1.742c0 1.209.972 1.885 2.051 1.885 1.374 0 1.848-1.067 1.837-1.067h.023s-.023.19-.023.427v.497h1.387v-3.78c0-1.53-.925-2.407-2.513-2.407-1.435 0-2.371.747-2.371.747l.569 1.079s.794-.581 1.659-.581c.664 0 1.162.272 1.162 1.067v.083h-.201c-.984 0-3.58.13-3.58 2.05zm1.517-.071c0-.842 1.245-.948 2.015-.948h.261v.142c0 .735-.569 1.588-1.363 1.588-.617 0-.913-.38-.913-.782zm4.151 3.911s.533.391 1.256.391c.913 0 1.754-.474 2.181-1.576l2.702-6.957h-1.647l-1.185 3.508a8.17 8.17 0 00-.202.794h-.024s-.106-.498-.225-.818l-1.268-3.484h-1.695l2.549 5.95-.226.533c-.225.533-.628.782-1.043.782-.343 0-.676-.249-.676-.249l-.497 1.126zm6.216-5.12c0 1.719 1.245 3.165 3.248 3.165 1.505 0 2.429-.866 2.429-.866l-.58-1.078s-.771.663-1.742.663c-.901 0-1.719-.545-1.814-1.6h4.172s.036-.402.036-.58c0-1.6-.937-2.869-2.679-2.869-1.802 0-3.07 1.304-3.07 3.165zm1.588-.747c.143-.782.676-1.256 1.447-1.256.663 0 1.173.439 1.197 1.256h-2.644zm5.046 3.769h1.505v-2.394c0-.355.036-.687.131-.984.284-.9 1.007-1.268 1.647-1.268.202 0 .356.024.356.024v-1.482s-.131-.023-.273-.023c-.924 0-1.647.687-1.92 1.552h-.024s.024-.201.024-.426v-1.043h-1.446v6.044z" fill="#211F9A"/><path d="M137.085 37.461h1.15v-2.69c0-.308-.024-.522-.024-.522h.024s.521.984 1.837.984c1.565 0 2.714-1.233 2.714-3.14 0-1.862-1.019-3.142-2.631-3.142-1.505 0-2.015 1.09-2.015 1.09h-.024s.024-.2.024-.438v-.51h-1.055v8.368zm1.114-5.345c0-1.53.83-2.157 1.731-2.157.995 0 1.695.841 1.695 2.145 0 1.363-.782 2.145-1.731 2.145-1.102 0-1.695-1.067-1.695-2.133zm5.637 2.974h1.15v-2.453c0-.367.035-.735.142-1.078.272-.89.948-1.41 1.683-1.41.178 0 .332.035.332.035v-1.138s-.142-.024-.296-.024c-.925 0-1.624.688-1.897 1.565h-.024s.024-.202.024-.45v-1.044h-1.114v5.998zm3.616-3.01c0 1.826 1.446 3.153 3.236 3.153 1.79 0 3.236-1.327 3.236-3.153 0-1.813-1.446-3.129-3.236-3.129-1.79 0-3.236 1.316-3.236 3.13zm1.173 0c0-1.244.937-2.133 2.063-2.133 1.138 0 2.062.889 2.062 2.133 0 1.257-.924 2.157-2.062 2.157-1.126 0-2.063-.9-2.063-2.157zm5.915.012c0 1.86 1.02 3.141 2.643 3.141 1.482 0 1.968-1.114 1.968-1.114h.023s-.011.166-.011.403v.569h1.09v-8.368h-1.15v2.773c0 .226.024.403.024.403h-.024s-.462-.948-1.848-.948c-1.589 0-2.715 1.233-2.715 3.141zm1.174 0c0-1.363.782-2.145 1.73-2.145 1.138 0 1.695 1.067 1.695 2.133 0 1.53-.842 2.157-1.73 2.157-.996 0-1.695-.841-1.695-2.145zm5.897.842c0 1.588.7 2.3 2.051 2.3 1.173 0 1.956-.783 2.204-1.376h.024s-.024.19-.024.439v.794h1.114v-5.998h-1.149v2.81c0 1.185-.723 2.263-1.944 2.263-.96 0-1.126-.663-1.126-1.493v-3.58h-1.15v3.84zm6.385-.842c0 1.802 1.327 3.141 3.212 3.141 1.564 0 2.394-.96 2.394-.96l-.462-.842s-.735.806-1.849.806c-1.245 0-2.122-.936-2.122-2.157 0-1.232.877-2.133 2.086-2.133 1.019 0 1.66.687 1.66.687l.545-.806s-.747-.877-2.252-.877c-1.885 0-3.212 1.363-3.212 3.141zm6.802.806c0 2.003 1.529 2.24 2.299 2.24.237 0 .403-.023.403-.023v-1.02s-.107.024-.273.024c-.438 0-1.28-.154-1.28-1.351V30.1h1.446v-.925h-1.446v-1.73h-1.114v1.73h-.818v.925h.783v2.797z" fill="#5F5F76"/></svg>