<svg width="75" height="75" fill="none" xmlns="http://www.w3.org/2000/svg"><g clip-path="url(#clip0_1409_18347)" fill="#211F9A"><path d="M21.979 55.57a3.428 3.428 0 011.61-.4H51.41c.562 0 1.116.137 1.61.4 3.103 1.651 1.915 6.3-1.61 6.3H23.59c-3.525 0-4.713-4.649-1.61-6.3zm-10.36-11.726a3.328 3.328 0 011.583-.401h48.596c.553 0 1.097.138 1.583.401 3.052 1.65 1.884 6.3-1.583 6.3H13.202c-3.467 0-4.635-4.65-1.583-6.3zM8.488 15.013a6.98 6.98 0 00-1.354 1.733L.883 28.05C-1.693 32.706 1.677 38.417 7 38.417h61c5.323 0 8.693-5.71 6.117-10.368l-6.25-11.303a6.983 6.983 0 00-1.5-1.864c-6.007 3.766-21.024 12.645-29.044 12.645-7.929 0-22.695-8.677-28.835-12.514z"/><path d="M11.102 13.478c6.62 4.017 19.27 11.098 26.22 11.098 6.993 0 19.754-7.166 26.34-11.17a6.989 6.989 0 00-1.913-.266H13.25c-.74 0-1.464.117-2.149.338z"/></g><defs><clipPath id="clip0_1409_18347"><path fill="#fff" d="M0 0h75v75H0z"/></clipPath></defs></svg>