<svg width="32" height="33" viewBox="0 0 32 33" fill="none" xmlns="http://www.w3.org/2000/svg">
<g clip-path="url(#clip0_1173_11744)">
<path d="M25.9979 28.389C23.6293 30.625 20.2692 31.9748 15.8692 31.9748C10.2228 31.9748 5.12586 28.6158 2.62524 23.7186L7.58895 19.8237C8.73918 23.4258 12.0118 26.0243 15.8692 26.0243C18.0281 26.0243 19.7722 25.4855 21.1167 24.5589L25.9979 28.389Z" fill="#34A853"/>
<path d="M7.14778 16.9749C7.14778 17.9702 7.30268 18.928 7.58888 19.8238L2.62518 23.7186C1.5902 21.6912 1 19.4002 1 16.9749C1 14.5495 1.5902 12.2585 2.62537 10.2311L7.58888 14.1262C7.30268 15.0219 7.14778 15.9795 7.14778 16.9749Z" fill="#FBBC05"/>
<path d="M25.9651 5.99738L21.7507 10.1514C20.2526 8.76505 18.2335 7.92539 15.8692 7.92539C12.0116 7.92539 8.73923 10.5239 7.589 14.1262L2.62549 10.2311C5.12591 5.33389 10.2229 1.97485 15.8692 1.97485C19.9737 1.97485 23.4505 3.5016 25.9651 5.99738Z" fill="#EA4335"/>
<path d="M30.3247 16.9748C30.3247 18.0332 30.2489 19.0661 30.0963 20.0626C29.5898 23.3688 28.2371 26.2751 25.9978 28.389L21.1166 24.5589C22.6596 23.4955 23.6766 21.9208 24.1914 20.0626H16.0676V14.5054H30.1471C30.2643 15.3089 30.3247 16.1336 30.3247 16.9748Z" fill="#4285F4"/>
</g>
<defs>
<clipPath id="clip0_1173_11744">
<rect width="29.3247" height="30" fill="white" transform="translate(1 1.97485)"/>
</clipPath>
</defs>
</svg>
