<svg xmlns="http://www.w3.org/2000/svg" width="150" height="150" viewBox="0 0 150 150">
  <g id="loading" transform="translate(5.152 2.912)">
    <circle id="Ellipse_23" data-name="Ellipse 23" cx="75" cy="75" r="75" transform="translate(-5.152 -2.912)" fill="#ffffff"/>
    <g id="loading-track" transform="translate(1.848 4.088)" fill="none" stroke="#d9d9db" stroke-width="14">
      <circle cx="68" cy="68" r="68" stroke="none"/>
      <circle cx="68" cy="68" r="61" fill="none"/>
    </g>
    <g id="loading-seqment" transform="translate(1.848 4.088) rotate(-68 68 68)" fill="none" stroke="#211fa6" stroke-linecap="round" stroke-width="14" stroke-dasharray="75 1000">
      <circle cx="68" cy="68" r="61" fill="none"/>
      <animateTransform attributeType="xml" attributeName="transform" type="rotate" from="0 68 68" to="360 68 68" dur="0.75s" additive="sum" repeatCount="indefinite"/>
    </g>
    <g id="loading-mascot" transform="translate(-5.25 -11)">
        <path d="M60.5873 100.243C61.0466 99.9984 61.5603 99.8704 62.0821 99.8704L87.9175 99.8704C88.4394 99.8704 88.953 99.9984 89.4124 100.243C92.2939 101.776 91.1907 106.093 87.9175 106.093L62.0821 106.093C58.8089 106.093 57.7058 101.776 60.5873 100.243Z" fill="#211F9A"/>
        <path d="M50.9673 89.3539C51.4191 89.1095 51.9243 88.9815 52.4376 88.9815L97.5622 88.9815C98.0754 88.9815 98.5807 89.1095 99.0325 89.3539C101.867 90.8869 100.782 95.2037 97.5622 95.2037L52.4376 95.2037C49.2182 95.2037 48.1332 90.8869 50.9673 89.3539Z" fill="#211F9A"/>
        <path d="M47.9217 62.4711C47.425 62.9333 46.9966 63.4768 46.6582 64.0885L40.8238 74.6377C38.4198 78.9844 41.5649 84.3148 46.5335 84.3148L103.466 84.3148C108.435 84.3148 111.58 78.9844 109.176 74.6377L103.342 64.0885C102.973 63.4219 102.497 62.8364 101.943 62.3487C96.3357 65.8633 82.3199 74.1508 74.8345 74.1508C67.4347 74.1508 53.653 66.0517 47.9217 62.4711Z" fill="#211F9A"/>
        <path d="M50.3622 61.038C56.5398 64.7877 68.3475 71.3963 74.8345 71.3963C81.3602 71.3963 93.2706 64.7084 99.4171 60.971C98.8442 60.8081 98.2444 60.7223 97.6321 60.7223L52.3679 60.7223C51.6764 60.7223 51.0008 60.8316 50.3622 61.038Z" fill="#211F9A"/>
    </g>
  </g>
</svg>
