<svg width="300" height="54" viewBox="0 0 300 54" fill="none" xmlns="http://www.w3.org/2000/svg">
<g clip-path="url(#clip0_680_7909)">
<path d="M24.2964 46.6102C24.8318 46.3253 25.4306 46.1762 26.0388 46.1762H56.1518C56.76 46.1762 57.3588 46.3253 57.8942 46.6102C61.2528 48.397 59.967 53.4286 56.1518 53.4286H26.0388C22.2236 53.4286 20.9379 48.397 24.2964 46.6102Z" fill="#211F9A"/>
<path d="M13.0835 33.9184C13.6101 33.6336 14.199 33.4844 14.7972 33.4844H67.3932C67.9914 33.4844 68.5801 33.6336 69.1066 33.9184C72.4104 35.7053 71.1458 40.7368 67.3932 40.7368H14.7972C11.0448 40.7368 9.78013 35.7053 13.0835 33.9184Z" fill="#211F9A"/>
<path d="M9.5336 2.58459C8.95463 3.1234 8.4553 3.75679 8.06091 4.46984L1.26053 16.7656C-1.54151 21.832 2.12426 28.0451 7.91555 28.0451H74.2751C80.0661 28.0451 83.732 21.832 80.9297 16.7656L74.1295 4.46984C73.6996 3.69283 73.1454 3.0104 72.499 2.44189C65.9636 6.53841 49.6272 16.1982 40.9024 16.1982C32.2774 16.1982 16.2139 6.75807 9.5336 2.58459Z" fill="#211F9A"/>
<path d="M12.3781 0.914215C19.5786 5.28481 33.3413 12.9876 40.9023 12.9876C48.5085 12.9876 62.391 5.19235 69.5553 0.836121C68.8876 0.64623 68.1884 0.546269 67.4748 0.546269L14.7159 0.546265C13.9099 0.546265 13.1225 0.673726 12.3781 0.914215Z" fill="#211F9A"/>
<path d="M99.4631 26.0991H113.362V22.6009H103.529V16.5815H111.061V13.0832H103.529V7.22134H112.858V3.72314H99.4631V26.0991Z" fill="#09092C"/>
<path d="M114.66 21.4663C114.66 24.6809 117.244 26.4773 120.112 26.4773C123.768 26.4773 125.028 23.6409 124.997 23.6409H125.06C125.06 23.6409 124.997 24.1452 124.997 24.7755V26.0991H128.684V16.0457C128.684 11.9802 126.226 9.64807 122.003 9.64807C118.19 9.64807 115.7 11.6335 115.7 11.6335L117.213 14.5014C117.213 14.5014 119.324 12.9572 121.625 12.9572C123.39 12.9572 124.713 13.682 124.713 15.7936V16.0142H124.177C121.562 16.0142 114.66 16.3609 114.66 21.4663ZM118.694 21.2772C118.694 19.0396 122.003 18.756 124.052 18.756H124.745V19.1342C124.745 21.0882 123.232 23.3573 121.121 23.3573C119.481 23.3573 118.694 22.3487 118.694 21.2772Z" fill="#09092C"/>
<path d="M130.55 24.1137C130.55 24.1137 132.787 26.4773 136.789 26.4773C140.603 26.4773 142.935 24.3343 142.935 21.6554C142.935 16.4869 135.119 16.7706 135.119 14.5014C135.119 13.4929 136.128 13.0517 137.168 13.0517C139.626 13.0517 141.107 14.4384 141.107 14.4384L142.588 11.4759C142.588 11.4759 140.824 9.64807 137.199 9.64807C133.733 9.64807 131.054 11.3814 131.054 14.3753C131.054 19.5439 138.869 19.2287 138.869 21.6239C138.869 22.5693 137.893 23.0736 136.758 23.0736C134.142 23.0736 132.377 21.3088 132.377 21.3088L130.55 24.1137Z" fill="#09092C"/>
<path d="M143.034 31.6773C143.034 31.6773 144.452 32.7173 146.375 32.7173C148.802 32.7173 151.039 31.4567 152.173 28.5258L159.359 10.0262H154.979L151.827 19.3547C151.543 20.2057 151.291 21.4663 151.291 21.4663H151.228C151.228 21.4663 150.945 20.1426 150.629 19.2917L147.257 10.0262H142.75L149.526 25.847L148.927 27.2651C148.329 28.6834 147.257 29.3452 146.155 29.3452C145.24 29.3452 144.358 28.6834 144.358 28.6834L143.034 31.6773Z" fill="#09092C"/>
<path d="M182.165 3.72314H178.636L174.602 19.1972C174.255 20.4894 174.223 21.5609 174.192 21.5609H174.129C174.129 21.5609 174.034 20.4579 173.751 19.1972L170.221 3.72314H166.029L171.639 26.0991H176.335L179.77 12.8626C180.148 11.4129 180.338 9.93169 180.338 9.93169H180.4C180.4 9.93169 180.589 11.4129 180.968 12.8626L184.403 26.0991H189.098L194.866 3.72314H190.674L186.987 19.1972C186.704 20.4579 186.609 21.5609 186.609 21.5609H186.546C186.515 21.5609 186.483 20.4894 186.136 19.1972L182.165 3.72314Z" fill="#09092C"/>
<path d="M197.539 26.0991H201.605V18.3778H206.175C210.366 18.3778 213.297 15.3523 213.297 11.0032C213.297 6.6541 210.366 3.72314 206.175 3.72314H197.539V26.0991ZM201.605 14.8481V7.22134H205.481C207.782 7.22134 209.168 8.70257 209.168 11.0032C209.168 13.3354 207.782 14.8481 205.418 14.8481H201.605Z" fill="#09092C"/>
<path d="M220.968 23.4203C220.968 23.4203 223.71 26.4773 228.69 26.4773C233.354 26.4773 236.064 23.4834 236.064 19.9221C236.064 12.7681 225.538 13.7451 225.538 9.77411C225.538 8.19836 227.02 7.09532 228.911 7.09532C231.715 7.09532 233.858 9.04928 233.858 9.04928L235.623 5.74014C235.623 5.74014 233.354 3.34497 228.942 3.34497C224.656 3.34497 221.441 6.11833 221.441 9.83712C221.441 16.7075 231.999 16.0142 231.999 20.0167C231.999 21.8445 230.454 22.727 228.752 22.727C225.601 22.727 223.174 20.3633 223.174 20.3633L220.968 23.4203Z" fill="#09092C"/>
<path d="M238.482 26.0991H242.547L243.493 13.5875C243.587 12.1063 243.525 10.0893 243.525 10.0893H243.587C243.587 10.0893 244.281 12.2954 244.816 13.5875L248.409 22.2542H251.97L255.595 13.5875C256.13 12.2954 256.792 10.1208 256.792 10.1208H256.855C256.855 10.1208 256.792 12.1063 256.887 13.5875L257.832 26.0991H261.866L260.07 3.72314H255.721L251.34 14.785C250.836 16.1087 250.237 18.0627 250.237 18.0627H250.174C250.174 18.0627 249.544 16.1087 249.039 14.785L244.659 3.72314H240.31L238.482 26.0991Z" fill="#09092C"/>
<path d="M270.531 26.0991H274.597V7.22134H281.94V3.72314H263.188V7.22134H270.531V26.0991Z" fill="#09092C"/>
<path d="M283.942 26.0991H288.008V18.3778H292.577C296.769 18.3778 299.7 15.3523 299.7 11.0032C299.7 6.6541 296.769 3.72314 292.577 3.72314H283.942V26.0991ZM288.008 14.8481V7.22134H291.884C294.185 7.22134 295.571 8.70257 295.571 11.0032C295.571 13.3354 294.185 14.8481 291.821 14.8481H288.008Z" fill="#09092C"/>
<path d="M99.4631 47.4521C99.4631 49.1525 100.894 50.0447 102.359 50.0447C104.396 50.0447 105.087 48.3612 105.087 48.3612H105.12C105.12 48.3612 105.087 48.6474 105.087 49.0347V49.8427H106.602V44.4555C106.602 42.3006 105.389 41.1221 103.234 41.1221C101.281 41.1221 100.052 42.1322 100.052 42.1322L100.726 43.3275C100.726 43.3275 101.787 42.5026 103.1 42.5026C104.177 42.5026 104.969 42.974 104.969 44.3713V44.5228H104.598C103.167 44.5228 99.4631 44.6407 99.4631 47.4521ZM101.113 47.368C101.113 45.836 103.336 45.7518 104.564 45.7518H104.986V46.0212C104.986 47.2838 104.093 48.7316 102.712 48.7316C101.652 48.7316 101.113 48.0582 101.113 47.368Z" fill="#5F5F76"/>
<path d="M112.093 48.4622C112.093 48.4622 113.558 50.0952 116.218 50.0952C118.71 50.0952 120.157 48.4959 120.157 46.5935C120.157 42.7719 114.534 43.2938 114.534 41.1726C114.534 40.3308 115.325 39.7416 116.335 39.7416C117.834 39.7416 118.979 40.7854 118.979 40.7854L119.921 39.0177C119.921 39.0177 118.71 37.7382 116.352 37.7382C114.063 37.7382 112.346 39.2197 112.346 41.2062C112.346 44.8763 117.985 44.5059 117.985 46.644C117.985 47.6205 117.161 48.0919 116.251 48.0919C114.568 48.0919 113.272 46.8292 113.272 46.8292L112.093 48.4622Z" fill="#211F9A"/>
<path d="M120.876 45.6003C120.876 48.0414 122.644 50.0952 125.489 50.0952C127.627 50.0952 128.94 48.8663 128.94 48.8663L128.116 47.3343C128.116 47.3343 127.021 48.277 125.64 48.277C124.361 48.277 123.199 47.5026 123.065 46.0043H128.99C128.99 46.0043 129.041 45.4319 129.041 45.1794C129.041 42.9067 127.711 41.1053 125.237 41.1053C122.677 41.1053 120.876 42.9571 120.876 45.6003ZM123.132 44.5397C123.334 43.4285 124.092 42.7551 125.186 42.7551C126.129 42.7551 126.853 43.378 126.886 44.5397H123.132Z" fill="#211F9A"/>
<path d="M130.299 49.8932H132.437V45.9538C132.437 45.5497 132.471 45.1626 132.589 44.809C132.909 43.7821 133.75 43.0582 134.895 43.0582C135.989 43.0582 136.259 43.7652 136.259 44.809V49.8932H138.38V44.3713C138.38 42.0985 137.303 41.1053 135.4 41.1053C133.666 41.1053 132.724 42.1659 132.353 42.8898H132.319C132.319 42.8898 132.353 42.6204 132.353 42.3006V41.3073H130.299V49.8932Z" fill="#211F9A"/>
<path d="M139.529 45.6002C139.529 48.2602 141.011 50.0952 143.334 50.0952C145.304 50.0952 146.028 48.6305 146.028 48.6305H146.062C146.062 48.6305 146.028 48.8663 146.028 49.1861V49.8932H148.048V37.9402H145.91V41.7113C145.91 41.9806 145.927 42.1995 145.927 42.1995H145.893C145.893 42.1995 145.304 41.1052 143.418 41.1052C141.145 41.1052 139.529 42.8729 139.529 45.6002ZM141.685 45.6002C141.685 43.8999 142.661 42.9403 143.839 42.9403C145.27 42.9403 145.977 44.2534 145.977 45.5834C145.977 47.4858 144.934 48.2938 143.822 48.2938C142.559 48.2938 141.685 47.2332 141.685 45.6002Z" fill="#211F9A"/>
<path d="M150.242 49.8932H157.582V48.0245H152.414V37.9402H150.242V49.8932Z" fill="#211F9A"/>
<path d="M157.752 47.4185C157.752 49.1356 159.132 50.0952 160.664 50.0952C162.617 50.0952 163.29 48.5801 163.273 48.5801H163.307C163.307 48.5801 163.273 48.8494 163.273 49.1861V49.8932H165.243V44.5228C165.243 42.3511 163.931 41.1053 161.674 41.1053C159.637 41.1053 158.307 42.1659 158.307 42.1659L159.115 43.6979C159.115 43.6979 160.243 42.873 161.472 42.873C162.415 42.873 163.122 43.2602 163.122 44.3882V44.506H162.836C161.439 44.506 157.752 44.6912 157.752 47.4185ZM159.907 47.3175C159.907 46.1221 161.674 45.9706 162.769 45.9706H163.139V46.1726C163.139 47.2164 162.331 48.4286 161.203 48.4286C160.327 48.4286 159.907 47.8899 159.907 47.3175Z" fill="#211F9A"/>
<path d="M165.802 52.8731C165.802 52.8731 166.56 53.4286 167.586 53.4286C168.883 53.4286 170.078 52.7552 170.684 51.1895L174.523 41.3073H172.182L170.499 46.2905C170.347 46.745 170.213 47.4185 170.213 47.4185H170.179C170.179 47.4185 170.028 46.7114 169.859 46.2568L168.058 41.3073H165.65L169.27 49.7585L168.95 50.5161C168.63 51.2737 168.058 51.6272 167.468 51.6272C166.981 51.6272 166.509 51.2737 166.509 51.2737L165.802 52.8731Z" fill="#211F9A"/>
<path d="M174.632 45.6003C174.632 48.0414 176.399 50.0952 179.244 50.0952C181.383 50.0952 182.696 48.8663 182.696 48.8663L181.871 47.3343C181.871 47.3343 180.776 48.277 179.396 48.277C178.117 48.277 176.955 47.5026 176.821 46.0043H182.746C182.746 46.0043 182.797 45.4319 182.797 45.1794C182.797 42.9067 181.467 41.1053 178.992 41.1053C176.433 41.1053 174.632 42.9571 174.632 45.6003ZM176.888 44.5397C177.09 43.4285 177.847 42.7551 178.942 42.7551C179.885 42.7551 180.608 43.378 180.642 44.5397H176.888Z" fill="#211F9A"/>
<path d="M184.054 49.8932H186.193V46.4925C186.193 45.9875 186.243 45.5161 186.378 45.0952C186.782 43.8158 187.809 43.2938 188.718 43.2938C189.004 43.2938 189.223 43.3275 189.223 43.3275V41.2232C189.223 41.2232 189.038 41.1895 188.835 41.1895C187.523 41.1895 186.496 42.1659 186.108 43.3949H186.075C186.075 43.3949 186.108 43.1086 186.108 42.7888V41.3073H184.054V49.8932Z" fill="#211F9A"/>
<path d="M194.714 53.2097H196.348V49.3881C196.348 48.9504 196.314 48.6474 196.314 48.6474H196.348C196.348 48.6474 197.088 50.0447 198.957 50.0447C201.18 50.0447 202.813 48.2938 202.813 45.5833C202.813 42.9403 201.365 41.1221 199.075 41.1221C196.937 41.1221 196.213 42.6709 196.213 42.6709H196.179C196.179 42.6709 196.213 42.3847 196.213 42.048V41.324H194.714V53.2097ZM196.297 45.617C196.297 43.4453 197.475 42.553 198.755 42.553C200.169 42.553 201.163 43.7483 201.163 45.6002C201.163 47.5362 200.052 48.6474 198.705 48.6474C197.139 48.6474 196.297 47.1322 196.297 45.617Z" fill="#5F5F76"/>
<path d="M204.304 49.8427H205.936V46.3578C205.936 45.8359 205.987 45.314 206.138 44.8258C206.526 43.5631 207.485 42.8224 208.529 42.8224C208.782 42.8224 209 42.873 209 42.873V41.2568C209 41.2568 208.799 41.2231 208.58 41.2231C207.267 41.2231 206.273 42.1995 205.886 43.4453H205.852C205.852 43.4453 205.886 43.1592 205.886 42.8056V41.3241H204.304V49.8427Z" fill="#5F5F76"/>
<path d="M209.44 45.5665C209.44 48.1591 211.494 50.0447 214.036 50.0447C216.578 50.0447 218.632 48.1591 218.632 45.5665C218.632 42.9907 216.578 41.1221 214.036 41.1221C211.494 41.1221 209.44 42.9907 209.44 45.5665ZM211.106 45.5665C211.106 43.7988 212.436 42.5362 214.036 42.5362C215.652 42.5362 216.965 43.7988 216.965 45.5665C216.965 47.3511 215.652 48.6305 214.036 48.6305C212.436 48.6305 211.106 47.3511 211.106 45.5665Z" fill="#5F5F76"/>
<path d="M219.508 45.5834C219.508 48.2265 220.956 50.0447 223.262 50.0447C225.366 50.0447 226.057 48.4622 226.057 48.4622H226.09C226.09 48.4622 226.074 48.6979 226.074 49.0346V49.8427H227.622V37.957H225.989V41.8965C225.989 42.2163 226.023 42.4689 226.023 42.4689H225.989C225.989 42.4689 225.333 41.1221 223.363 41.1221C221.107 41.1221 219.508 42.873 219.508 45.5834ZM221.175 45.5834C221.175 43.6474 222.286 42.5362 223.632 42.5362C225.248 42.5362 226.04 44.0514 226.04 45.5665C226.04 47.7383 224.844 48.6306 223.582 48.6306C222.168 48.6306 221.175 47.4353 221.175 45.5834Z" fill="#5F5F76"/>
<path d="M229.551 46.7786C229.551 49.0346 230.545 50.0447 232.464 50.0447C234.13 50.0447 235.242 48.9336 235.595 48.0918H235.629C235.629 48.0918 235.595 48.3612 235.595 48.7147V49.8427H237.178V41.324H235.544V45.314C235.544 46.9975 234.518 48.5295 232.784 48.5295C231.42 48.5295 231.184 47.5868 231.184 46.4083V41.324H229.551V46.7786Z" fill="#5F5F76"/>
<path d="M238.62 45.5833C238.62 48.1423 240.505 50.0447 243.182 50.0447C245.404 50.0447 246.583 48.6811 246.583 48.6811L245.926 47.4857C245.926 47.4857 244.882 48.6305 243.3 48.6305C241.532 48.6305 240.286 47.3006 240.286 45.5665C240.286 43.8157 241.532 42.5362 243.25 42.5362C244.697 42.5362 245.606 43.5127 245.606 43.5127L246.381 42.3678C246.381 42.3678 245.32 41.1221 243.182 41.1221C240.505 41.1221 238.62 43.0581 238.62 45.5833Z" fill="#5F5F76"/>
<path d="M248.281 46.7282C248.281 49.5733 250.453 49.91 251.547 49.91C251.884 49.91 252.119 49.8764 252.119 49.8764V48.4286C252.119 48.4286 251.968 48.4622 251.732 48.4622C251.109 48.4622 249.914 48.2433 249.914 46.543V42.7551H251.968V41.4419H249.914V38.984H248.332V41.4419H247.17V42.7551H248.281V46.7282Z" fill="#5F5F76"/>
</g>
<defs>
<clipPath id="clip0_680_7909">
<rect width="300" height="53.9749" fill="white"/>
</clipPath>
</defs>
</svg>
