<svg viewBox="0 0 16 16" fill="none" xmlns="http://www.w3.org/2000/svg">
<path d="M8 0.224854C3.71875 0.224854 0.25 3.72485 0.25 7.97485C0.25 12.2561 3.71875 15.7249 8 15.7249C12.25 15.7249 15.75 12.2561 15.75 7.97485C15.75 3.72485 12.25 0.224854 8 0.224854ZM8 14.2249C4.53125 14.2249 1.75 11.4436 1.75 7.97485C1.75 4.53735 4.53125 1.72485 8 1.72485C11.4375 1.72485 14.25 4.53735 14.25 7.97485C14.25 11.4436 11.4375 14.2249 8 14.2249ZM11.3438 6.2561C11.3438 4.6936 9.6875 3.47485 8.15625 3.47485C6.6875 3.47485 5.75 4.09985 5.03125 5.1936C4.90625 5.34985 4.9375 5.5686 5.09375 5.6936L5.96875 6.34985C6.125 6.47485 6.375 6.4436 6.5 6.28735C6.96875 5.6936 7.3125 5.34985 8.03125 5.34985C8.59375 5.34985 9.28125 5.6936 9.28125 6.2561C9.28125 6.66235 8.9375 6.84985 8.375 7.16235C7.75 7.53735 6.90625 7.97485 6.90625 9.09985V9.34985C6.90625 9.5686 7.0625 9.72485 7.28125 9.72485H8.6875C8.90625 9.72485 9.0625 9.5686 9.0625 9.34985V9.16235C9.0625 8.3811 11.3438 8.34985 11.3438 6.2561ZM9.3125 11.4749C9.3125 10.7561 8.71875 10.1624 8 10.1624C7.25 10.1624 6.6875 10.7561 6.6875 11.4749C6.6875 12.2249 7.25 12.7874 8 12.7874C8.71875 12.7874 9.3125 12.2249 9.3125 11.4749Z" fill="currentColor"/>
</svg>
