<svg width="32" height="33" viewBox="0 0 32 33" fill="none" xmlns="http://www.w3.org/2000/svg">
<g clip-path="url(#clip0_1173_11851)">
<path d="M31.9405 7.71953V26.2709C31.9406 26.628 31.8187 26.9743 31.5951 27.2522C31.3715 27.5301 31.0597 27.7228 30.7117 27.798C30.6033 27.8216 30.4927 27.8332 30.3818 27.8328H1.66444C1.55355 27.8332 1.44295 27.8216 1.33456 27.798C0.986872 27.7224 0.675478 27.5297 0.452209 27.2518C0.22894 26.9739 0.10726 26.6277 0.107422 26.2709V7.71953C0.107422 7.30528 0.271465 6.90799 0.563462 6.61507C0.85546 6.32215 1.25149 6.15759 1.66444 6.15759H30.3835C30.7964 6.15759 31.1925 6.32215 31.4845 6.61507C31.7765 6.90799 31.9405 7.30528 31.9405 7.71953Z" fill="#09092C"/>
<path d="M19.6006 17.2674L31.9404 26.0004V8.03894L19.6006 17.2674Z" fill="#5C5C76"/>
<path d="M12.5297 17.1847L0.107422 8.03894V26.0004L12.5297 17.1847Z" fill="#5C5C76"/>
<path d="M17.3484 19.0248C16.9571 19.2893 16.4959 19.4306 16.024 19.4306C15.552 19.4306 15.0909 19.2893 14.6995 19.0248L12.6947 17.4091L0.107422 26.0808V26.3389C0.113065 26.6872 0.238443 27.0228 0.462348 27.289C0.686253 27.5552 0.994943 27.7357 1.33621 27.7999C1.44472 27.8225 1.55528 27.8336 1.66609 27.833H30.3835C30.4943 27.8336 30.6049 27.8225 30.7134 27.7999C31.0543 27.7354 31.3626 27.5548 31.5862 27.2886C31.8098 27.0224 31.9349 26.6869 31.9405 26.3389V26.0808L19.411 17.4479L17.3484 19.0248Z" fill="#5C5C76" fill-opacity="0.9"/>
<path d="M30.3835 6.15759H1.66444C0.804286 6.15759 0.107422 6.81943 0.107422 7.63763V7.94042L14.6995 18.3023C15.0916 18.5649 15.5525 18.705 16.024 18.705C16.4954 18.705 16.9563 18.5649 17.3484 18.3023L31.9405 7.94042V7.63763C31.9405 6.81943 31.2436 6.15759 30.3835 6.15759Z" fill="#6F6F86"/>
</g>
<defs>
<clipPath id="clip0_1173_11851">
<rect width="32" height="21.906" fill="white" transform="translate(0 5.97485)"/>
</clipPath>
</defs>
</svg>
