<svg width="275" height="241" viewBox="0 0 275 241" fill="none" xmlns="http://www.w3.org/2000/svg">
<path d="M138.427 56.4324C102.619 56.4324 73.606 85.7063 73.606 121.253C73.606 157.061 102.619 186.074 138.427 186.074C173.974 186.074 203.248 157.061 203.248 121.253C203.248 85.7063 173.974 56.4324 138.427 56.4324ZM138.427 68.9784C167.178 68.9784 190.702 92.502 190.702 121.253C190.702 150.266 167.178 173.528 138.427 173.528C109.414 173.528 86.1519 150.266 86.1519 121.253C86.1519 92.502 109.414 68.9784 138.427 68.9784ZM175.019 103.218L169.008 97.2068C167.962 95.8999 165.871 95.8999 164.564 97.2068L127.71 133.799L112.028 118.117C110.721 116.81 108.891 116.81 107.585 118.117L101.573 123.867C100.528 125.174 100.528 127.265 101.573 128.31L125.358 152.357C126.665 153.664 128.495 153.664 129.801 152.357L175.019 107.662C176.065 106.355 176.065 104.264 175.019 103.218Z" fill="#25B578"/>
<path d="M135.385 6.86319L130.996 2.47412L126.607 6.86318L130.996 11.2523L135.385 6.86319Z" fill="white" stroke="#25B578" stroke-opacity="0.6" stroke-width="0.358117" stroke-miterlimit="10"/>
<path d="M68.3672 207.184L65.2637 201.809L59.8882 204.912L62.9917 210.288L68.3672 207.184Z" fill="#25B578" fill-opacity="0.6"/>
<path d="M225.772 70.552L222.669 65.1765L217.293 68.2801L220.397 73.6555L225.772 70.552Z" fill="#25B578" fill-opacity="0.8"/>
<path d="M102.921 28.2006C104.405 28.2006 105.607 26.9981 105.607 25.5147C105.607 24.0314 104.405 22.8289 102.921 22.8289C101.438 22.8289 100.235 24.0314 100.235 25.5147C100.235 26.9981 101.438 28.2006 102.921 28.2006Z" fill="#25B578" fill-opacity="0.7"/>
<path d="M233.686 158.372C235.169 158.372 236.372 157.169 236.372 155.686C236.372 154.203 235.169 153 233.686 153C232.203 153 231 154.203 231 155.686C231 157.169 232.203 158.372 233.686 158.372Z" fill="#25B578" fill-opacity="0.7"/>
<path d="M76.5863 5.67621C77.0195 4.67515 76.5591 3.51245 75.5581 3.07925C74.557 2.64606 73.3943 3.1064 72.9611 4.10746C72.5279 5.10852 72.9883 6.27122 73.9893 6.70442C74.9904 7.13762 76.1531 6.67727 76.5863 5.67621Z" fill="white" stroke="#25B578" stroke-width="0.358117" stroke-miterlimit="10"/>
<path d="M53.4095 156.381C53.8427 155.38 53.3824 154.218 52.3813 153.784C51.3803 153.351 50.2176 153.811 49.7844 154.813C49.3512 155.814 49.8115 156.976 50.8126 157.409C51.8136 157.843 52.9763 157.382 53.4095 156.381Z" fill="white" stroke="#25B578" stroke-opacity="0.6" stroke-width="0.358117" stroke-miterlimit="10"/>
<path d="M154.664 23.4697C154.863 23.4849 155.091 23.6488 155.092 23.8099L155.321 26.2577L157.731 25.3042C157.896 25.237 158.101 25.3463 158.178 25.5387C158.208 25.627 158.204 25.7228 158.168 25.8086C158.132 25.8944 158.066 25.9642 157.983 26.0052L155.407 27.0276L155.643 29.5694C155.666 29.7851 155.464 29.9275 155.292 29.9705C155.104 29.983 154.903 29.8075 154.844 29.6696L154.665 27.332L152.78 28.0706C152.542 28.1996 152.304 28.1682 152.181 28.025L152.109 27.9265C152.085 27.8285 152.097 27.725 152.143 27.6351C152.189 27.5453 152.266 27.4751 152.36 27.4377L154.575 26.5621L154.333 23.9263C154.319 23.8384 154.335 23.7483 154.38 23.6713C154.425 23.5942 154.495 23.5351 154.578 23.5037L154.664 23.4697Z" fill="#25B578"/>
<path d="M55.2589 73.2059C55.4576 73.2212 55.6859 73.385 55.6868 73.5461L55.916 75.9939L58.3252 75.0404C58.4909 74.9732 58.6959 75.0825 58.7729 75.275C58.8023 75.3632 58.7988 75.459 58.7629 75.5448C58.727 75.6306 58.6612 75.7005 58.5777 75.7414L56.002 76.7638L56.2374 79.3056C56.2607 79.5213 56.0584 79.6637 55.8865 79.7067C55.6984 79.7192 55.4979 79.5437 55.4388 79.4058L55.2598 77.0682L53.3743 77.8068C53.137 77.9358 52.8989 77.9044 52.7762 77.7612L52.7037 77.6627C52.6794 77.5647 52.6914 77.4612 52.7375 77.3713C52.7836 77.2815 52.8606 77.2113 52.9544 77.1739L55.1693 76.2983L54.9276 73.6625C54.9134 73.5746 54.9301 73.4845 54.9748 73.4075C55.0196 73.3304 55.0895 73.2713 55.1729 73.24L55.2589 73.2059Z" fill="#25B578"/>
<path d="M86.75 219.459C86.9497 219.459 87.1923 219.598 87.2084 219.757L87.6632 222.175L89.9731 221.003C90.1315 220.919 90.3464 221.009 90.4431 221.194C90.4803 221.279 90.4855 221.375 90.4577 221.463C90.4299 221.552 90.3709 221.628 90.2918 221.676L87.8226 222.929L88.2926 225.436C88.3356 225.648 88.152 225.811 87.9801 225.868C87.7939 225.898 87.5781 225.742 87.5092 225.61L87.1099 223.299L85.3005 224.21C85.0767 224.36 84.8368 224.351 84.7016 224.219L84.6201 224.13C84.5868 224.035 84.5891 223.931 84.6266 223.837C84.6641 223.743 84.7343 223.666 84.8242 223.621L86.9497 222.546L86.4653 219.944C86.442 219.857 86.4497 219.765 86.4871 219.683C86.5246 219.601 86.5894 219.535 86.6703 219.496L86.75 219.459Z" fill="white"/>
<path d="M14.4683 115.428L8.42773 114L6.9998 120.041L13.0404 121.469L14.4683 115.428Z" fill="#25B578" fill-opacity="0.6"/>
<path d="M122.884 236.95L120.138 228.707L111.895 231.454L114.642 239.696L122.884 236.95Z" fill="white" stroke="#25B578" stroke-opacity="0.6" stroke-width="0.358117" stroke-miterlimit="10"/>
<path d="M274.152 124.753L271.405 116.51L263.163 119.257L265.91 127.499L274.152 124.753Z" fill="white" stroke="#25B578" stroke-opacity="0.6" stroke-width="0.358117" stroke-miterlimit="10"/>
<path d="M104.897 212.128C105.988 212.128 106.872 211.244 106.872 210.153C106.872 209.062 105.988 208.178 104.897 208.178C103.806 208.178 102.922 209.062 102.922 210.153C102.922 211.244 103.806 212.128 104.897 212.128Z" fill="#25B578" fill-opacity="0.9"/>
<path d="M204.421 201.011C204.6 201.101 204.749 201.339 204.69 201.488L203.974 203.84L206.565 203.871C206.744 203.871 206.892 204.05 206.892 204.257C206.886 204.35 206.846 204.438 206.781 204.504C206.715 204.57 206.627 204.609 206.534 204.615L203.764 204.586L203.02 207.027C202.96 207.236 202.722 207.296 202.544 207.266C202.365 207.206 202.246 206.968 202.246 206.818L202.962 204.584L200.937 204.555C200.668 204.584 200.46 204.465 200.4 204.286L200.369 204.167C200.384 204.067 200.434 203.975 200.511 203.91C200.587 203.844 200.685 203.808 200.786 203.809L203.169 203.838L203.943 201.307C203.963 201.221 204.013 201.143 204.083 201.089C204.154 201.035 204.241 201.007 204.33 201.009L204.421 201.011Z" fill="#25B578" fill-opacity="0.9"/>
</svg>
