<svg viewBox="0 0 12 12" fill="none" xmlns="http://www.w3.org/2000/svg">
<path d="M11.2499 0.733129C11.1728 0.655876 11.0813 0.594587 10.9805 0.552769C10.8797 0.510951 10.7716 0.489426 10.6624 0.489426C10.5533 0.489426 10.4452 0.510951 10.3444 0.552769C10.2436 0.594587 10.152 0.655876 10.0749 0.733129L5.99994 4.7998L1.92494 0.724796C1.84779 0.647644 1.7562 0.586444 1.6554 0.54469C1.55459 0.502936 1.44655 0.481445 1.33744 0.481445C1.22833 0.481445 1.12029 0.502936 1.01949 0.54469C0.918686 0.586444 0.827094 0.647644 0.749942 0.724796C0.67279 0.801947 0.61159 0.893539 0.569836 0.994343C0.528082 1.09515 0.506592 1.20319 0.506592 1.3123C0.506592 1.4214 0.528082 1.52945 0.569836 1.63025C0.61159 1.73105 0.67279 1.82264 0.749942 1.8998L4.82494 5.9748L0.749942 10.0498C0.67279 10.1269 0.61159 10.2185 0.569836 10.3193C0.528082 10.4201 0.506592 10.5282 0.506592 10.6373C0.506592 10.7464 0.528082 10.8544 0.569836 10.9552C0.61159 11.0561 0.67279 11.1476 0.749942 11.2248C0.827094 11.3019 0.918686 11.3631 1.01949 11.4049C1.12029 11.4467 1.22833 11.4681 1.33744 11.4681C1.44655 11.4681 1.55459 11.4467 1.6554 11.4049C1.7562 11.3631 1.84779 11.3019 1.92494 11.2248L5.99994 7.1498L10.0749 11.2248C10.1521 11.3019 10.2437 11.3631 10.3445 11.4049C10.4453 11.4467 10.5533 11.4681 10.6624 11.4681C10.7716 11.4681 10.8796 11.4467 10.9804 11.4049C11.0812 11.3631 11.1728 11.3019 11.2499 11.2248C11.3271 11.1476 11.3883 11.0561 11.43 10.9552C11.4718 10.8544 11.4933 10.7464 11.4933 10.6373C11.4933 10.5282 11.4718 10.4201 11.43 10.3193C11.3883 10.2185 11.3271 10.1269 11.2499 10.0498L7.17494 5.9748L11.2499 1.8998C11.5666 1.58313 11.5666 1.0498 11.2499 0.733129Z" fill="#6F6F84"/>
</svg>
