<svg width="24" height="24" fill="none" xmlns="http://www.w3.org/2000/svg"><path d="M12 0C5.371 0 0 5.42 0 12c0 6.629 5.371 12 12 12 6.58 0 12-5.371 12-12 0-6.58-5.42-12-12-12zm0 2.323c5.323 0 9.677 4.354 9.677 9.677 0 5.371-4.354 9.677-9.677 9.677A9.644 9.644 0 012.323 12c0-5.323 4.306-9.677 9.677-9.677zm6.774 6.338l-1.113-1.113c-.193-.242-.58-.242-.822 0l-6.823 6.775-2.903-2.904a.557.557 0 00-.823 0l-1.113 1.065c-.193.242-.193.629 0 .822l4.404 4.452c.242.242.58.242.822 0l8.371-8.274c.194-.242.194-.63 0-.823z" fill="#0F8A56"/></svg>