<svg width="48" height="48" fill="none" xmlns="http://www.w3.org/2000/svg"><path d="M24 .75C11.156.75.75 11.25.75 24 .75 36.844 11.156 47.25 24 47.25c12.75 0 23.25-10.406 23.25-23.25C47.25 11.25 36.75.75 24 .75zm0 4.5c10.313 0 18.75 8.438 18.75 18.75 0 10.406-8.438 18.75-18.75 18.75A18.685 18.685 0 015.25 24C5.25 13.687 13.594 5.25 24 5.25zm13.125 12.281l-2.156-2.156c-.375-.469-1.125-.469-1.594 0L20.156 28.5l-5.625-5.625c-.469-.469-1.125-.469-1.594 0l-2.156 2.063c-.375.468-.375 1.218 0 1.593l8.531 8.625c.47.469 1.125.469 1.594 0l16.219-16.031c.375-.469.375-1.219 0-1.594z" fill="#25B578"/></svg>