<svg width="16" height="17" fill="none" xmlns="http://www.w3.org/2000/svg"><path d="M15.75 8.5c0-4.25-3.5-7.75-7.75-7.75C3.719.75.25 4.25.25 8.5A7.749 7.749 0 008 16.25c4.25 0 7.75-3.469 7.75-7.75zM8 10.063c.781 0 1.438.656 1.438 1.437 0 .813-.657 1.438-1.438 1.438A1.414 1.414 0 016.562 11.5c0-.781.625-1.438 1.438-1.438zM6.625 4.905C6.594 4.688 6.781 4.5 7 4.5h1.969c.219 0 .406.188.375.406l-.219 4.25c-.031.219-.188.344-.375.344H7.219c-.188 0-.344-.125-.375-.344l-.219-4.25z" fill="#DF2A4A"/></svg>