<svg width="24" height="22" fill="none" xmlns="http://www.w3.org/2000/svg"><path d="M23.74 18.707L13.73 1.317c-.75-1.293-2.71-1.334-3.46 0L.26 18.707c-.75 1.293.21 2.961 1.752 2.961h19.976c1.543 0 2.502-1.626 1.751-2.96zM12.02 15.08a1.94 1.94 0 011.92 1.918 1.913 1.913 0 01-1.92 1.919 1.888 1.888 0 01-1.918-1.919c0-1.042.835-1.918 1.919-1.918zM10.187 8.2c-.042-.293.208-.543.5-.543h2.628c.292 0 .542.25.5.542l-.292 5.672c-.042.292-.25.458-.5.458h-2.044c-.25 0-.458-.166-.5-.458l-.292-5.672z" fill="#EE792D"/></svg>