<svg width="24" height="24" fill="none" xmlns="http://www.w3.org/2000/svg"><path d="M12 0C5.371 0 0 5.42 0 12c0 6.629 5.371 12 12 12 6.58 0 12-5.371 12-12 0-6.58-5.42-12-12-12zm0 21.677A9.644 9.644 0 012.323 12c0-5.323 4.306-9.677 9.677-9.677 5.323 0 9.677 4.354 9.677 9.677 0 5.371-4.354 9.677-9.677 9.677zm0-16.354a2.013 2.013 0 00-2.032 2.032c0 1.161.87 2.032 2.032 2.032a2.014 2.014 0 002.032-2.032c0-1.113-.92-2.032-2.032-2.032zm2.71 12.29v-1.161c0-.29-.29-.581-.581-.581h-.58v-4.839c0-.29-.29-.58-.581-.58H9.87c-.339 0-.58.29-.58.58v1.162c0 .338.241.58.58.58h.58v3.097h-.58c-.339 0-.58.29-.58.58v1.162c0 .339.241.58.58.58h4.258c.29 0 .58-.241.58-.58z" fill="#211FA6"/></svg>