<svg width="24" height="24" fill="none" xmlns="http://www.w3.org/2000/svg"><path d="M12 0C5.371 0 0 5.371 0 12s5.371 12 12 12 12-5.371 12-12S18.629 0 12 0zm0 21.677A9.644 9.644 0 012.323 12c0-5.323 4.306-9.677 9.677-9.677 5.323 0 9.677 4.354 9.677 9.677 0 5.371-4.354 9.677-9.677 9.677zM16.887 9c.242-.194.242-.58 0-.823l-1.064-1.064c-.242-.242-.63-.242-.823 0l-3 3-3.048-3c-.194-.242-.581-.242-.823 0L7.065 8.177c-.242.242-.242.63 0 .823l3 3-3 3.048c-.242.194-.242.581 0 .823l1.064 1.065c.242.241.63.241.823 0l3.048-3 3 3c.194.241.58.241.823 0l1.064-1.065c.242-.242.242-.63 0-.823l-3-3.048 3-3z" fill="#DF2A4A"/></svg>