<svg viewBox="0 0 14 17" fill="none" xmlns="http://www.w3.org/2000/svg"><g clip-path="url(#clip0_817_7280)"><path d="M13.531 2.563L11.937.968C11.658.688 11.281.5 10.876.5H5.5A1.5 1.5 0 004 2v1.5H1.5A1.5 1.5 0 000 5v10c0 .844.656 1.5 1.5 1.5h7A1.5 1.5 0 0010 15v-1.5h2.5A1.5 1.5 0 0014 12V3.625c0-.406-.188-.781-.469-1.063zM8.312 15H1.689c-.125 0-.188-.063-.188-.188V5.188c0-.094.063-.188.188-.188H4v7c0 .844.656 1.5 1.5 1.5h3v1.313c0 .124-.094.187-.188.187zm4-3H5.689c-.125 0-.188-.063-.188-.188V2.188c0-.094.063-.188.188-.188H9v2.75c0 .438.313.75.75.75h2.75v6.313c0 .124-.094.187-.188.187zm.188-8h-2V2h.281c.063 0 .094.031.125.063l1.531 1.53c.032.032.063.063.063.126V4z" fill="currentColor"/></g><defs><clipPath id="clip0_817_7280"><path fill="#fff" transform="translate(0 .5)" d="M0 0h14v16H0z"/></clipPath></defs></svg>