<svg width="63" height="38" fill="none" xmlns="http://www.w3.org/2000/svg"><g clip-path="url(#clip0_1297_2201)"><path d="M17.917 13.87c0 .771.084 1.397.23 1.856.167.458.375.959.667 1.501a.907.907 0 01.146.48c0 .209-.125.417-.396.626l-1.314.876a1 1 0 01-.542.187c-.209 0-.417-.104-.626-.292a6.45 6.45 0 01-.75-.98c-.21-.354-.418-.75-.648-1.23-1.626 1.918-3.67 2.878-6.131 2.878-1.752 0-3.15-.5-4.172-1.502-1.022-1.001-1.543-2.336-1.543-4.004 0-1.773.626-3.212 1.898-4.297 1.272-1.084 2.962-1.627 5.11-1.627.709 0 1.439.063 2.21.167.772.104 1.565.271 2.4.459V7.446c0-1.586-.335-2.691-.981-3.338-.668-.646-1.794-.959-3.4-.959-.73 0-1.48.083-2.252.271a16.62 16.62 0 00-2.253.71 5.93 5.93 0 01-.73.27 1.28 1.28 0 01-.333.063c-.292 0-.438-.209-.438-.647V2.794c0-.333.041-.583.146-.73.104-.145.292-.291.584-.437.73-.376 1.605-.689 2.627-.939C8.448.417 9.533.292 10.68.292c2.482 0 4.296.563 5.465 1.69 1.147 1.125 1.73 2.836 1.73 5.13v6.757h.042zM9.45 17.04c.688 0 1.397-.126 2.148-.376.75-.25 1.418-.709 1.981-1.335.334-.396.584-.834.71-1.335a7.54 7.54 0 00.208-1.814v-.876a17.433 17.433 0 00-1.919-.355 15.72 15.72 0 00-1.96-.125c-1.398 0-2.42.271-3.108.835-.688.563-1.022 1.355-1.022 2.398 0 .98.25 1.71.772 2.21.5.522 1.23.773 2.19.773zm16.747 2.252c-.375 0-.625-.063-.792-.209-.167-.125-.313-.417-.438-.813L20.066 2.148c-.126-.417-.188-.688-.188-.834 0-.334.167-.522.5-.522h2.044c.396 0 .668.063.814.209.166.125.292.417.417.813l3.504 13.807L30.41 1.814c.105-.417.23-.688.397-.813.166-.125.458-.209.834-.209h1.668c.397 0 .668.063.835.209.166.125.313.417.396.813l3.295 13.974 3.608-13.974c.126-.417.272-.688.418-.813.166-.125.438-.209.813-.209h1.94c.333 0 .521.167.521.522 0 .104-.02.208-.042.333-.02.126-.062.292-.146.522L39.921 18.29c-.125.417-.271.688-.438.813-.167.125-.438.209-.793.209h-1.793c-.397 0-.668-.063-.835-.209-.166-.146-.312-.417-.396-.834L32.433 4.818l-3.212 13.431c-.104.417-.229.688-.396.834-.167.146-.459.209-.834.209h-1.794zm26.8.563a13.8 13.8 0 01-3.211-.375c-1.043-.25-1.856-.522-2.398-.835-.334-.187-.564-.396-.647-.584a1.471 1.471 0 01-.125-.584v-1.063c0-.438.167-.647.48-.647.125 0 .25.021.375.063.125.041.313.125.521.208.71.313 1.481.564 2.295.73.834.167 1.647.25 2.482.25 1.313 0 2.335-.229 3.044-.688.71-.458 1.085-1.126 1.085-1.981 0-.584-.188-1.064-.563-1.46-.376-.396-1.085-.75-2.107-1.084l-3.024-.939c-1.522-.48-2.648-1.189-3.337-2.127-.688-.918-1.043-1.94-1.043-3.025 0-.876.188-1.647.564-2.315a5.362 5.362 0 011.501-1.71c.626-.48 1.335-.834 2.17-1.084.834-.25 1.71-.355 2.627-.355.459 0 .939.02 1.398.083.48.063.917.146 1.355.23.417.104.814.208 1.19.334.375.125.666.25.875.375.292.167.5.334.626.521.125.167.187.397.187.689v.98c0 .438-.166.667-.48.667-.166 0-.437-.083-.792-.25-1.189-.542-2.523-.813-4.004-.813-1.19 0-2.128.187-2.774.584-.647.396-.98 1-.98 1.856 0 .584.208 1.084.625 1.48.417.397 1.19.793 2.294 1.148l2.962.938c1.502.48 2.586 1.147 3.233 2.003.646.855.96 1.835.96 2.92 0 .896-.188 1.71-.543 2.419a5.61 5.61 0 01-1.523 1.835c-.646.522-1.418.897-2.315 1.168a9.917 9.917 0 01-2.982.438z" fill="#262F3E"/><path d="M56.94 29.992c-6.862 5.068-16.832 7.758-25.404 7.758-12.013 0-22.838-4.442-31.013-11.825-.647-.584-.063-1.377.709-.918 8.843 5.13 19.75 8.238 31.034 8.238 7.613 0 15.976-1.585 23.672-4.838 1.148-.522 2.128.75 1.002 1.585zm2.857-3.254c-.876-1.126-5.798-.542-8.03-.271-.667.083-.772-.5-.167-.938 3.921-2.754 10.366-1.961 11.117-1.043.75.938-.209 7.383-3.88 10.47-.563.48-1.105.229-.855-.397.835-2.064 2.69-6.715 1.815-7.82z" fill="#F59931"/></g><defs><clipPath id="clip0_1297_2201"><path fill="#fff" transform="translate(.245 .25)" d="M0 0h62.709v37.5H0z"/></clipPath></defs></svg>