<svg width="100" height="32" fill="none" xmlns="http://www.w3.org/2000/svg"><g clip-path="url(#clip0_2252_617)"><path d="M13.076 11.551v3.314h7.92c-.243 1.86-.86 3.217-1.806 4.174-1.157 1.157-2.962 2.423-6.114 2.423-4.876 0-8.688-3.931-8.688-8.807 0-4.877 3.812-8.808 8.688-8.808 2.627 0 4.552 1.038 5.964 2.369l2.33-2.33C19.406 1.976 16.764.522 13.076.522 6.398.522.78 5.962.78 12.642c0 6.683 5.617 12.122 12.295 12.122 3.61 0 6.33-1.184 8.456-3.395 2.18-2.18 2.87-5.266 2.87-7.742 0-.768-.054-1.482-.174-2.076h-11.15z" fill="#4285F4"/><path d="M34.297 8.859c-4.324 0-7.85 3.287-7.85 7.823 0 4.537 3.53 7.824 7.85 7.824s7.85-3.314 7.85-7.824c0-4.54-3.525-7.823-7.85-7.823zm0 12.565c-2.368 0-4.417-1.953-4.417-4.742 0-2.789 2.049-4.74 4.417-4.74 2.369 0 4.417 1.924 4.417 4.74 0 2.786-2.044 4.742-4.417 4.742z" fill="#EA4335"/><path d="M72.785 10.61h-.12c-.767-.914-2.248-1.751-4.12-1.751-3.903 0-7.31 3.406-7.31 7.823s3.407 7.824 7.31 7.824c1.872 0 3.353-.834 4.12-1.779h.12v1.092c0 2.99-1.6 4.59-4.174 4.59-2.102 0-3.406-1.508-3.946-2.788l-2.99 1.238c.86 2.075 3.136 4.618 6.936 4.618 4.028 0 7.434-2.369 7.434-8.148V9.26h-3.26v1.35zM68.84 21.424c-2.369 0-4.174-2.022-4.174-4.742s1.805-4.74 4.174-4.74c2.369 0 4.174 2.02 4.174 4.767.015 2.732-1.832 4.715-4.174 4.715z" fill="#4285F4"/><path d="M51.804 8.859c-4.325 0-7.85 3.287-7.85 7.823 0 4.537 3.529 7.824 7.85 7.824 4.32 0 7.85-3.314 7.85-7.824s-3.526-7.823-7.85-7.823zm0 12.565c-2.37 0-4.418-1.953-4.418-4.742 0-2.789 2.049-4.74 4.418-4.74 2.368 0 4.417 1.924 4.417 4.74 0 2.786-2.045 4.742-4.417 4.742z" fill="#FBBC05"/><path d="M78.738.845h3.38v23.66h-3.38V.845z" fill="#34A853"/><path d="M92.553 21.424c-1.752 0-2.99-.795-3.796-2.37l10.462-4.324-.351-.887c-.648-1.751-2.639-4.984-6.693-4.984-4.055 0-7.38 3.163-7.38 7.823 0 4.39 3.314 7.824 7.758 7.824 3.584 0 5.655-2.195 6.52-3.46l-2.666-1.779c-.891 1.292-2.103 2.157-3.854 2.157zm-.243-9.63c1.388 0 2.573.714 2.962 1.725l-7.07 2.92c.003-3.287 2.333-4.644 4.108-4.644z" fill="#EA4335"/></g><defs><clipPath id="clip0_2252_617"><path fill="#fff" transform="translate(.781 .523)" d="M0 0h98.438v30.954H0z"/></clipPath></defs></svg>