<svg width="121" height="34" fill="none" xmlns="http://www.w3.org/2000/svg"><g clip-path="url(#clip0_458_213)"><path d="M32.478 28.736h-1.867v1.153h1.814v.682H30.61v1.605h1.867v.682h-2.57v-4.801h2.57v.68zm.65 1.092h.68v.28c.13-.141.243-.235.334-.286a.807.807 0 01.372-.077c.331 0 .593.15.786.447.214-.3.503-.447.867-.447.66 0 .992.414.992 1.24v1.873h-.682v-1.682c0-.292-.035-.495-.102-.615-.07-.123-.187-.185-.347-.185-.188 0-.324.072-.41.217-.085.144-.128.38-.128.7v1.565h-.682v-1.671c0-.538-.15-.808-.452-.808-.19 0-.33.075-.418.222-.088.147-.13.38-.13.695v1.565h-.68v-3.033zm6.909 0h.682v3.028h-.682v-.319c-.278.27-.58.404-.901.404a1.29 1.29 0 01-1.009-.454c-.262-.31-.395-.696-.395-1.159 0-.462.13-.831.395-1.134a1.26 1.26 0 01.99-.454c.343 0 .648.144.92.436v-.348zm-1.61 1.506c0 .291.075.527.227.709.155.184.35.278.586.278a.767.767 0 00.61-.268c.155-.184.233-.42.233-.703 0-.284-.078-.52-.233-.704a.762.762 0 00-.604-.27.745.745 0 00-.586.273 1.026 1.026 0 00-.233.685zm2.905-2.766a.45.45 0 01.128-.319.419.419 0 01.31-.133c.121 0 .228.045.314.134a.44.44 0 01.128.32.446.446 0 01-.128.324.415.415 0 01-.31.134.42.42 0 01-.314-.134.452.452 0 01-.128-.326zm.781 1.26v3.028h-.68v-3.028h.68zm1.394-2.223v5.253h-.68v-5.253h.68zm5.347 4.085H46.86l-.519 1.166h-.757l2.303-5.104 2.223 5.104h-.77l-.487-1.167zm-.286-.68l-.69-1.632-.725 1.632h1.415zm2.527-1.182v1.738c0 .503.193.752.575.752.383 0 .576-.252.576-.752v-1.738h.679v1.754c0 .244-.03.452-.088.629-.056.158-.155.3-.292.425-.23.206-.521.308-.875.308-.353 0-.642-.102-.872-.308a1.06 1.06 0 01-.3-.425c-.055-.142-.085-.35-.085-.629v-1.754h.682zm3.245.652v2.376h-.68V30.48h-.288v-.652h.289v-1.11h.679v1.11h.527v.652h-.527zm.752.84c0-.438.152-.81.454-1.115.305-.308.675-.46 1.11-.46.437 0 .811.155 1.116.462.302.31.452.688.452 1.14 0 .452-.152.835-.455 1.142a1.53 1.53 0 01-1.126.458c-.447 0-.81-.156-1.107-.466-.297-.31-.444-.695-.444-1.16zm.693.014c0 .302.077.543.235.72.16.178.372.267.636.267.265 0 .48-.089.637-.265.158-.177.238-.412.238-.706 0-.295-.08-.53-.238-.707a.811.811 0 00-.636-.267.8.8 0 00-.632.267c-.16.177-.24.407-.24.69zm3.015-1.506h.678v.28c.132-.141.244-.235.335-.286a.806.806 0 01.372-.077c.331 0 .593.15.786.447.214-.3.503-.447.867-.447.66 0 .992.414.992 1.24v1.873h-.682v-1.682c0-.292-.035-.495-.102-.615-.07-.123-.187-.185-.347-.185-.188 0-.324.072-.41.217-.085.144-.128.38-.128.7v1.565h-.682v-1.671c0-.538-.15-.808-.452-.808-.19 0-.33.075-.417.222-.089.147-.132.38-.132.695v1.565H58.8v-3.033zm6.908 0h.682v3.028h-.682v-.319c-.278.27-.58.404-.901.404a1.29 1.29 0 01-1.009-.454c-.265-.31-.395-.696-.395-1.159 0-.462.13-.831.395-1.134a1.26 1.26 0 01.99-.454c.342 0 .647.144.92.436v-.348zm-1.61 1.506c0 .291.075.527.227.709.155.184.35.278.586.278a.767.767 0 00.61-.268c.155-.184.233-.42.233-.703 0-.284-.078-.52-.233-.704a.76.76 0 00-.602-.27.745.745 0 00-.586.273 1.014 1.014 0 00-.235.685zm3.707-.854v2.376h-.68V30.48h-.288v-.652h.289v-1.11h.68v1.11h.526v.652h-.527zm.744-1.912a.45.45 0 01.128-.319.419.419 0 01.31-.133c.12 0 .228.045.314.134a.442.442 0 01.13.32.438.438 0 01-.13.324.415.415 0 01-.31.134.42.42 0 01-.314-.134.452.452 0 01-.128-.326zm.781 1.26v3.028h-.68v-3.028h.68zm.578 1.492c0-.438.152-.81.454-1.115.303-.308.675-.46 1.11-.46.437 0 .811.155 1.116.462.302.31.452.688.452 1.14 0 .452-.152.835-.455 1.142a1.53 1.53 0 01-1.126.458c-.447 0-.81-.156-1.107-.466-.294-.31-.444-.695-.444-1.16zm.695.014c0 .302.078.543.236.72.16.178.371.267.636.267s.48-.089.637-.265c.158-.177.238-.412.238-.706 0-.295-.08-.53-.238-.707a.811.811 0 00-.637-.267.804.804 0 00-.631.267c-.16.177-.24.407-.24.69zm3.015-1.506h.682v.28c.238-.243.505-.363.802-.363.343 0 .608.112.8.331.166.19.246.498.246.923v1.857h-.682v-1.69c0-.3-.04-.504-.12-.619-.078-.115-.222-.174-.428-.174-.225 0-.385.078-.479.23-.094.15-.139.415-.139.792v1.46h-.682v-3.027z" fill="#C02126"/><path fill-rule="evenodd" clip-rule="evenodd" d="M92.117 11.799h-3.223v1.597a5.772 5.772 0 00-4.39-1.96c-3.79 0-6.548 3.158-6.548 7.513 0 4.354 2.758 7.28 6.516 7.28 1.763 0 3.09-.598 4.422-1.995v1.961c0 2.926-1.163 4.357-3.558 4.357-1.297 0-2.56-.63-3.124-1.628-.332-.565-.433-1.097-.532-2.293h-3.157c.033 4.189 2.627 6.816 6.781 6.816 2.394 0 4.454-.963 5.618-2.691.93-1.33 1.195-2.56 1.195-5.286V11.8zm-7.013 2.525c2.327 0 3.921 1.83 3.921 4.454 0 2.624-1.562 4.552-3.89 4.552-2.326 0-3.889-1.76-3.889-4.488 0-2.72 1.53-4.518 3.858-4.518z" fill="#C02126"/><path fill-rule="evenodd" clip-rule="evenodd" d="M29.857 11.8v13.994h3.196V18.58c0-2.958.792-4.256 2.603-4.256 1.45 0 2.142 1.196 2.142 3.724v7.746h3.197V18.58c0-2.993.792-4.256 2.602-4.256 1.55 0 2.143 1.03 2.143 3.691v7.78h3.197V17.15c0-3.755-1.616-5.718-4.713-5.718-1.712 0-3.133.73-4.12 2.062-.856-1.33-2.175-2.062-3.723-2.062-1.386 0-2.11.366-3.328 1.66v-1.297h-3.196v.003zm31.186 0v1.628c-1.396-1.428-2.592-1.995-4.355-1.995-3.755 0-6.615 3.124-6.615 7.28 0 4.387 2.793 7.514 6.682 7.514 1.696 0 2.793-.5 4.288-1.896v1.463h3.223V11.8h-3.223zm-3.79 2.524c2.362 0 3.988 1.862 3.988 4.489 0 2.626-1.629 4.52-3.988 4.52-2.36 0-3.89-1.894-3.89-4.52 0-2.627 1.664-4.489 3.89-4.489zm12.81-2.525h-3.226v13.995h3.226V11.799zm-1.597-7.787c-1.196 0-2.127.931-2.127 2.095 0 1.163.966 2.126 2.095 2.126 1.129 0 2.126-.963 2.126-2.126 0-1.164-.93-2.095-2.094-2.095z" fill="#646569"/><path d="M76.245.468H73.02v25.326h3.224V.468z" fill="#646569"/><path fill-rule="evenodd" clip-rule="evenodd" d="M97.28 11.799h-3.226v8.11c0 2.194.398 3.392 1.463 4.556 1.132 1.163 2.659 1.762 4.489 1.762 1.829 0 3.391-.599 4.52-1.762 1.065-1.164 1.463-2.36 1.463-4.556V11.8h-3.223v8.046c0 2.394-.864 3.49-2.758 3.49-1.894 0-2.725-1.096-2.725-3.49V11.8h-.003zm10.865 0v13.995h3.226v-6.749c0-3.459.797-4.721 2.959-4.721 1.995 0 2.626.899 2.626 3.656v7.814h3.224v-8.576c0-3.924-1.629-5.783-5.053-5.783-1.53 0-2.493.433-3.756 1.661V11.8h-3.226z" fill="#C02126"/><path d="M13.382 12.906a4.94 4.94 0 100 9.882 4.94 4.94 0 000-9.882zm-7.704 4.938a7.702 7.702 0 017.704-7.7 7.702 7.702 0 017.658 8.532c-.059.752.492 1.324 1.239 1.324 1.265 0 1.401-1.631 1.401-2.156 0-5.687-4.611-10.298-10.298-10.298S3.084 12.157 3.084 17.844s4.611 10.298 10.298 10.298c3.02 0 5.738-1.3 7.62-3.37l2.117 1.779a13.036 13.036 0 01-9.74 4.357C6.168 30.906.32 25.058.32 17.844S6.168 4.783 13.382 4.783c7.214 0 13.061 5.847 13.061 13.061 0 2.9-1.38 5.254-4.154 5.254-1.22 0-1.963-.56-2.367-1.183a7.702 7.702 0 01-14.244-4.071zm7.704-2.26a2.26 2.26 0 012.26 2.26 2.26 2.26 0 11-2.26-2.26z" fill="#C02126"/></g><defs><clipPath id="clip0_458_213"><path fill="#fff" transform="translate(.32 .468)" d="M0 0h119.859v32.979H0z"/></clipPath></defs></svg>