<svg width="98" height="40" fill="none" xmlns="http://www.w3.org/2000/svg"><g clip-path="url(#clip0_1297_2243)"><path d="M92.406 0H67.834c-1.108 0-2 .897-2.005 2.006V4.29L79.68 8.57l14.731-4.285V2a2.018 2.018 0 00-2.005-2z" fill="#0364B8"/><path d="M96.766 22.006A16.21 16.21 0 0097.269 20a.96.96 0 00-.475-.823l-15.508-8.834a1.89 1.89 0 00-.206-.12 2.154 2.154 0 00-1.909 0 1.879 1.879 0 00-.205.12l-15.48 8.823a.96.96 0 00-.474.823c.125.68.29 1.348.502 2.005l16.417 12 16.835-11.988z" fill="#0A2767"/><path d="M85.84 4.286h-10L72.983 8.57l2.857 4.286 10 8.572h8.572v-8.572l-8.572-8.57z" fill="#28A8EA"/><path fill-rule="evenodd" clip-rule="evenodd" d="M65.84 4.286h10v8.571h-10V4.286z" fill="#0078D4"/><path fill-rule="evenodd" clip-rule="evenodd" d="M85.84 4.286h8.571v8.571H85.84V4.286z" fill="#50D9FF"/><path d="M85.84 21.428l-10-8.571h-10v8.571l10 8.572 15.474 2.526-5.474-11.098z" fill="#0364B8"/><path fill-rule="evenodd" clip-rule="evenodd" d="M75.84 12.857h10v8.571h-10v-8.571z" fill="#0078D4"/><path fill-rule="evenodd" clip-rule="evenodd" d="M65.84 21.429h10V30h-10v-8.57z" fill="#064A8C"/><path fill-rule="evenodd" clip-rule="evenodd" d="M85.84 21.429h8.571V30H85.84v-8.57z" fill="#0078D4"/><path d="M80.4 33.143L63.549 20.857l.708-1.24 15.583 8.897a.732.732 0 00.6 0L96.057 19.6l.709 1.24L80.4 33.143z" fill="#0A2767" fill-opacity=".5"/><path d="M96.794 20.823l-15.508 8.834a2.138 2.138 0 01-2.086.132l5.394 7.228 11.789 2.566c.548-.4.88-1.034.886-1.714V20a.948.948 0 01-.475.823z" fill="#1490DF"/><path d="M97.269 37.857v-1.051l-14.286-8.132-1.714.983c-.629.4-1.418.452-2.086.132l5.394 7.228 11.789 2.566c.548-.4.88-1.034.885-1.714l.018-.012z" fill="#000" fill-opacity=".05"/><path d="M97.194 38.406l-15.628-8.909-.28.16c-.629.4-1.418.451-2.086.131l5.394 7.23 11.789 2.565c.4-.292.691-.709.817-1.189v.012h-.006z" fill="#000" fill-opacity=".1"/><path d="M63.48 20.846l-.046-.029a.93.93 0 01-.44-.8v17.846A2.15 2.15 0 0065.12 40h30.006c.177 0 .354-.029.525-.074a.796.796 0 00.258-.08.162.162 0 00.085-.035c.12-.045.229-.108.332-.182l.057-.046L63.48 20.846z" fill="#28A8EA"/><path d="M77.269 32.383V9.052a1.93 1.93 0 00-1.903-1.909h-9.48v10.651l-2.406 1.372a.96.96 0 00-.474.823v14.297h12.383a1.928 1.928 0 001.88-1.903z" fill="#000" fill-opacity=".1"/><path d="M75.84 33.811V10.474a1.924 1.924 0 00-1.903-1.903h-8.051v9.223l-2.406 1.372a.96.96 0 00-.474.822V35.72H73.96a1.925 1.925 0 001.88-1.909zm0-2.857v-20.48a1.924 1.924 0 00-1.903-1.903h-8.051v9.223l-2.406 1.372a.96.96 0 00-.474.822v12.875H73.96a1.925 1.925 0 001.88-1.909zm-1.428 0v-20.48a1.925 1.925 0 00-1.903-1.903h-6.623v9.223l-2.406 1.372a.96.96 0 00-.474.822v12.875h9.525a1.925 1.925 0 001.88-1.909z" fill="#000" fill-opacity=".15"/><path d="M53.474 8.571h19.029a1.91 1.91 0 011.908 1.903v19.052a1.918 1.918 0 01-1.908 1.902H53.474a1.917 1.917 0 01-1.903-1.902V10.474c0-1.051.852-1.897 1.903-1.903z" fill="#0078D4"/><path d="M57.08 16.383a5.95 5.95 0 012.343-2.594 7.108 7.108 0 013.731-.932c1.2-.023 2.389.28 3.429.886a5.968 5.968 0 012.286 2.474 8.023 8.023 0 01.8 3.64 8.446 8.446 0 01-.829 3.812 6.03 6.03 0 01-2.349 2.565 6.88 6.88 0 01-3.577.909 6.743 6.743 0 01-3.526-.897 6.018 6.018 0 01-2.285-2.48 7.791 7.791 0 01-.806-3.6 8.64 8.64 0 01.794-3.783h-.011zm2.497 6.08a3.87 3.87 0 001.32 1.714c.6.423 1.326.64 2.063.623a3.488 3.488 0 003.48-2.354c.286-.76.423-1.566.411-2.377a7.165 7.165 0 00-.382-2.406 3.846 3.846 0 00-1.24-1.777 3.44 3.44 0 00-2.183-.674 3.548 3.548 0 00-2.109.628 3.973 3.973 0 00-1.348 1.714 6.857 6.857 0 000 4.909h-.012z" fill="#fff"/><path d="M.331 0h19.006v19.006H.331V0z" fill="#F25022"/><path d="M21.326 0H40.33v19.006H21.326V0z" fill="#7FBA00"/><path d="M.331 20.994h19.006V40H.331V20.994z" fill="#00A4EF"/><path d="M21.326 20.994H40.33V40H21.326V20.994z" fill="#FFB900"/></g><defs><clipPath id="clip0_1297_2243"><path fill="#fff" transform="translate(.331)" d="M0 0h96.937v40H0z"/></clipPath></defs></svg>