<svg width="64" height="34" fill="none" xmlns="http://www.w3.org/2000/svg"><g clip-path="url(#clip0_458_266)" fill-rule="evenodd" clip-rule="evenodd"><path d="M32.368.83c16.96 0 30.712 7.383 30.712 16.49 0 9.105-13.752 16.489-30.712 16.489C15.41 33.809.42 26.425.42 17.319.42 8.213 15.405.83 32.368.83z" fill="#777BB3"/><path d="M13.748 9.631h6.575c1.929.016 3.326.573 4.196 1.665.866 1.097 1.155 2.59.858 4.486a8.632 8.632 0 01-.759 2.551 7.598 7.598 0 01-1.57 2.255 5.46 5.46 0 01-2.626 1.616c-.948.231-1.921.346-2.894.346H14.58l-.931 4.659h-3.41L13.748 9.63zm2.869 2.795l-1.472 7.354c.099.017.194.025.293.025h.342c1.323.045 2.65-.111 3.924-.466 1.047-.342 1.752-1.537 2.111-3.578.293-1.715 0-2.704-.882-2.968a11.04 11.04 0 00-3.265-.367 6.76 6.76 0 01-.565.025h-.515l.025-.025h.004zm12.639-7.478h3.384l-.956 4.683h3.042c1.67.033 2.91.375 3.73 1.03.834.656 1.081 1.897.739 3.727l-1.645 8.167h-3.434l1.57-7.796c.166-.816.116-1.397-.148-1.74-.26-.342-.824-.515-1.69-.515l-2.725-.024-2.011 10.079h-3.385L29.26 4.956l-.004-.008zm13.579 4.687h6.575c1.93.017 3.327.573 4.197 1.665.865 1.097 1.154 2.59.857 4.486a8.56 8.56 0 01-.763 2.551 7.6 7.6 0 01-1.57 2.255 5.46 5.46 0 01-2.626 1.616c-.948.231-1.921.347-2.894.342h-2.943l-.936 4.659h-3.41l3.513-17.582v.008zm2.869 2.787l-1.472 7.354c.1.017.194.025.293.025h.342a13 13 0 003.925-.466c1.047-.342 1.752-1.538 2.11-3.578.293-1.715 0-2.704-.882-2.968a11.041 11.041 0 00-3.265-.367 6.758 6.758 0 01-.565.024h-.515l.025-.024" fill="#F8F8F9"/></g><defs><clipPath id="clip0_458_266"><path fill="#fff" transform="translate(.42 .83)" d="M0 0h62.66v32.979H0z"/></clipPath></defs></svg>