<svg width="130" height="28" fill="none" xmlns="http://www.w3.org/2000/svg"><g clip-path="url(#clip0_458_196)"><path d="M27.162 19.962s1.957 2.18 5.508 2.18c3.328 0 5.261-2.138 5.261-4.676 0-5.103-7.51-4.406-7.51-7.24 0-1.125 1.055-1.911 2.407-1.911 2.003 0 3.528 1.394 3.528 1.394l1.26-2.36s-1.618-1.71-4.765-1.71c-3.147 0-5.35 1.979-5.35 4.629 0 4.903 7.53 4.406 7.53 7.26 0 1.305-1.102 1.933-2.315 1.933-2.25 0-3.978-1.687-3.978-1.687l-1.576 2.18v.008zm11.728-3.821c0 3.259 2.361 6.005 6.159 6.005 2.854 0 4.61-1.64 4.61-1.64l-1.101-2.046s-1.46 1.26-3.305 1.26c-1.71 0-3.258-1.037-3.44-3.036h7.915s.07-.762.07-1.101c0-3.035-1.776-5.442-5.08-5.442-3.305 0-5.824 2.472-5.824 6.004l-.004-.004zm3.012-1.417c.27-1.483 1.283-2.384 2.742-2.384 1.26 0 2.227.832 2.273 2.384h-5.015zm9.571 7.148h2.854v-5.26c0-.54.046-1.056.204-1.53.428-1.371 1.553-2.338 3.081-2.338 1.53 0 1.822.944 1.822 2.338v6.79h2.831v-7.375c0-3.035-1.44-4.36-3.979-4.36-2.314 0-3.574 1.417-4.07 2.384h-.047s.047-.358.047-.786V10.41h-2.743v11.466-.004zm11.94-5.731c0 3.551 1.98 6.005 5.08 6.005 2.63 0 3.597-1.957 3.597-1.957h.047s-.047.316-.047.744v.943h2.697V5.911h-2.855v5.038c0 .358.024.651.024.651h-.047s-.785-1.46-3.304-1.46c-3.035 0-5.192 2.361-5.192 6.005v-.004zm2.877 0c0-2.272 1.302-3.55 2.877-3.55 1.91 0 2.854 1.752 2.854 3.527 0 2.542-1.394 3.62-2.877 3.62-1.687 0-2.854-1.417-2.854-3.597zm11.431 5.731h9.802v-2.496h-6.901V5.911h-2.9v15.961zm10.415-3.304c0 2.291 1.845 3.574 3.89 3.574 2.608 0 3.509-2.022 3.486-2.022h.046s-.046.358-.046.809v.943h2.63v-7.171c0-2.9-1.752-4.564-4.764-4.564-2.72 0-4.499 1.417-4.499 1.417l1.079 2.045s1.506-1.101 3.146-1.101c1.26 0 2.204.516 2.204 2.022v.158h-.382c-1.868 0-6.79.246-6.79 3.89zm2.877-.135c0-1.595 2.361-1.799 3.82-1.799h.494v.27c0 1.394-1.079 3.012-2.585 3.012-1.17 0-1.729-.72-1.729-1.483zM98.5 25.85s1.013.744 2.385.744c1.729 0 3.327-.897 4.136-2.989l5.126-13.195h-3.123l-2.249 6.656c-.205.608-.382 1.506-.382 1.506h-.046s-.204-.944-.427-1.553l-2.408-6.609h-3.216l4.834 11.285-.428 1.013c-.427 1.013-1.19 1.483-1.979 1.483-.651 0-1.283-.474-1.283-.474l-.943 2.138.004-.004zm11.405-9.709c0 3.259 2.361 6.005 6.158 6.005 2.854 0 4.611-1.64 4.611-1.64l-1.102-2.046s-1.46 1.26-3.304 1.26c-1.711 0-3.259-1.037-3.44-3.036h7.915s.069-.762.069-1.101c0-3.035-1.775-5.442-5.08-5.442-3.304 0-5.823 2.472-5.823 6.004l-.004-.004zm3.012-1.417c.269-1.483 1.282-2.384 2.742-2.384 1.259 0 2.226.832 2.272 2.384h-5.014zm9.571 7.148h2.854v-4.54c0-.675.065-1.306.246-1.865.539-1.71 1.911-2.407 3.124-2.407.381 0 .674.046.674.046v-2.811s-.247-.047-.516-.047c-1.753 0-3.124 1.306-3.644 2.947h-.046s.046-.382.046-.809v-1.98h-2.742v11.466h.004z" fill="#09092C"/><path d="M16.998 3.277A2.46 2.46 0 0118.27 5.43v17.058A2.46 2.46 0 0117 24.641l-3.98 2.2c-1.64.905-3.647-.282-3.647-2.153V3.227c0-1.872 2.01-3.058 3.648-2.153l3.978 2.2v.003zM7.323 5.284c.093.173.143.37.143.566v16.2c0 .196-.05.392-.143.566-.59 1.09-2.241.674-2.241-.567V5.85c0-1.24 1.656-1.656 2.241-.566zM3.102 8.507c.092.174.142.37.142.567v9.779c0 .196-.05.392-.142.566-.586 1.09-2.242.674-2.242-.566v-9.78c0-1.24 1.656-1.656 2.242-.566z" fill="#211FA6"/></g><defs><clipPath id="clip0_458_196"><path fill="#fff" transform="translate(.86 .766)" d="M0 0h128.529v26.383H0z"/></clipPath></defs></svg>