<svg width="106" height="24" fill="none" xmlns="http://www.w3.org/2000/svg"><g clip-path="url(#clip0_2231_688)"><path d="M21.724 20.701l2.648-2.075c.744 1.288 1.931 2.032 3.291 2.032 1.474 0 2.261-.959 2.261-2.003 0-1.245-1.517-1.646-3.134-2.147-2.032-.63-4.308-1.417-4.308-4.322 0-2.433 2.119-4.365 5.052-4.365 2.476 0 3.893.93 5.124 2.204l-2.39 1.803c-.63-.93-1.517-1.43-2.705-1.43-1.345 0-2.075.73-2.075 1.688 0 1.16 1.46 1.56 3.077 2.104 2.06.672 4.393 1.574 4.393 4.493 0 2.419-1.918 4.737-5.266 4.737-2.762.015-4.594-1.159-5.968-2.719zm23.27-7.885h2.833v1.159c.673-.859 1.689-1.374 2.877-1.374 2.447 0 3.935 1.574 3.935 4.265v6.34h-2.905v-5.968c0-1.388-.644-2.204-1.918-2.204-1.087 0-1.974.744-1.974 2.49v5.682h-2.848v-10.39zm10.304 5.21c0-3.679 2.704-5.41 5.051-5.41 1.346 0 2.419.5 3.106 1.23v-5.81h2.848V23.22h-2.848v-1.16c-.687.817-1.789 1.375-3.134 1.375-2.218 0-5.023-1.76-5.023-5.41zm8.228-.03c0-1.545-1.116-2.79-2.661-2.79-1.546 0-2.791 1.188-2.791 2.79 0 1.603 1.202 2.805 2.79 2.805 1.59 0 2.662-1.259 2.662-2.805zm3.435-2.36c0-4.323 3.263-7.8 7.757-7.8 2.246 0 4.136.815 5.51 2.103.558.53 1.03 1.13 1.402 1.79l-2.533 1.545c-.93-1.732-2.376-2.62-4.35-2.62-2.763 0-4.91 2.262-4.91 4.995 0 2.734 2.104 4.995 5.01 4.995 2.203 0 3.763-1.245 4.307-3.177h-4.766v-2.762h7.886v1.16c0 4.078-2.905 7.584-7.427 7.584-4.752-.014-7.886-3.62-7.886-7.814zm16.028-2.82h2.834v1.703c.515-1.088 1.46-1.703 2.877-1.703h1.144l-1.03 2.762h-.773c-1.517 0-2.19.787-2.19 2.719v4.909h-2.847v-10.39h-.015zm7.585 0h2.848V23.22h-2.848v-7.628h-1.03l1.03-2.776zm1.431-1.574c.945 0 1.703-.759 1.703-1.703 0-.945-.758-1.703-1.703-1.703-.944 0-1.703.758-1.703 1.703 0 .944.759 1.703 1.703 1.703zm2.09 6.783c0-3.678 2.705-5.41 5.052-5.41 1.345 0 2.418.501 3.105 1.231v-5.81h2.848V23.22h-2.848v-1.16c-.687.817-1.789 1.375-3.134 1.375-2.218 0-5.023-1.76-5.023-5.41zm8.243-.029c0-1.545-1.116-2.79-2.662-2.79-1.546 0-2.79 1.188-2.79 2.79 0 1.603 1.202 2.805 2.79 2.805 1.589 0 2.662-1.259 2.662-2.805zm-58.017 0c0-2.99-2.19-5.38-5.367-5.38a5.405 5.405 0 00-5.41 5.41c0 2.99 2.248 5.409 5.496 5.409 2.247 0 3.864-1.088 4.766-2.634l-2.261-1.345c-.473.916-1.403 1.489-2.49 1.489-1.503 0-2.433-.745-2.762-1.89h8.028v-1.059zm-7.9-1.245c.444-.973 1.346-1.645 2.562-1.645 1.217 0 2.104.558 2.476 1.645H36.42z" fill="#243846"/><path d="M12.236 17.152H6.168v6.068h6.068v-6.068zM6.168 11.07H.1v6.082h6.068V11.07z" fill="#9EDBEE"/><path d="M6.168 17.152H.1v6.068h6.068v-6.068z" fill="#3F7CBC"/><path d="M18.318 11.07H12.25v6.082h6.068V11.07zm-6.082-6.068H6.168v6.068h6.068V5.002z" fill="#07B2E2"/><path d="M6.168 11.07v6.082h6.082V11.07H6.168z" fill="#0F9CD5"/><path d="M18.318 5.002H12.25v6.068h6.068V5.002z" fill="#3F7CBC"/><path d="M24.6 1.339v3.534h-.815V1.34h-1.26V.623h3.35v.701H24.6v.015zm7.228 3.534h-.773l-.945-3.091-.944 3.091h-.773L27.205.608l.859.015.787 3.005.887-3.005h.816l.887 3.005.773-3.005h.816l-1.203 4.25zm2.833 0V.623h.816v4.25h-.816zm2.719 0V.623h.816v3.535h1.417l.014.715H37.38zm3.936 0V.623h.816v4.25h-.816zm4.551.087c-1.203 0-1.99-.888-1.99-2.205 0-1.316.787-2.204 2.004-2.204 1.216 0 1.99.888 1.99 2.204-.015 1.302-.788 2.204-2.004 2.204zm0-3.736c-.73 0-1.16.601-1.16 1.531 0 .93.444 1.531 1.16 1.531.715 0 1.173-.6 1.173-1.53 0-.931-.444-1.532-1.173-1.532z" fill="#243846"/></g><defs><clipPath id="clip0_2231_688"><path fill="#fff" transform="translate(.1 .551)" d="M0 0h105v22.898H0z"/></clipPath></defs></svg>