<svg width="106" height="21" fill="none" xmlns="http://www.w3.org/2000/svg"><path d="M1.02.457h27.217v19.736a4.28 4.28 0 01-.481.052H1.404c-.128 0-.257-.018-.383-.029V.457zm26.414 18.974V1.634L2.713 19.403c.105.025.213.043.321.056H12.1c.25-.02.487-.108.688-.257 1.086-.757 2.155-1.545 3.231-2.318l4.764-3.41.459.631-7.394 5.326h13.587zM1.842 1.616v17.46l12.204-8.78-12.204-8.68zm1.11-.33c.054.073.116.14.183.201C6.892 4.163 10.652 6.84 14.41 9.514c.358.258.567.113.832-.08l10.705-7.792c.123-.09.23-.198.41-.355H2.951zm51.015 6.202v12.826h-3.863V1.308c.214-.013.438-.037.662-.037 1.2 0 2.4.024 3.605-.012a.929.929 0 011.015.623c1.457 3.113 2.95 6.21 4.44 9.314.097.2.208.394.373.706.18-.34.304-.557.412-.773 1.511-3.09 3.028-6.18 4.52-9.27a.854.854 0 01.913-.585c1.43.034 2.861.013 4.332.013v19.056h-3.863V7.563l-.17-.057c-.103.183-.216.36-.314.548-1.398 2.65-2.804 5.295-4.182 7.955a.807.807 0 01-.886.515c-.68-.044-1.504.193-2.011-.11-.508-.305-.698-1.121-1.015-1.721-1.18-2.233-2.356-4.47-3.528-6.713-.095-.183-.206-.358-.309-.539l-.131.047zm40.445 12.819h-3.933V1.308a1.7 1.7 0 01.32-.06c2.763.022 5.528.014 8.289.086a7.21 7.21 0 012.122.438c2.722.934 4.174 3.216 3.973 6.139-.177 2.6-2.044 4.663-4.823 5.248a14.35 14.35 0 01-2.42.257c-1.154.044-2.318 0-3.534 0l.005 6.891zm.015-9.834h3.481a5.865 5.865 0 001.082-.113c1.321-.258 2.166-1.288 2.271-2.717.111-1.499-.615-2.833-1.895-3.193-1.622-.471-3.291-.15-4.94-.22v6.243zm-48.574-8.75c-.33 1.118-.644 2.171-.974 3.286-.437-.2-.831-.386-1.23-.564a9.629 9.629 0 00-5.066-.837c-1.416.155-2.255 1.03-2.206 2.261a1.92 1.92 0 001.174 1.705c1.017.482 2.098.83 3.139 1.262 1.287.53 2.621.96 3.79 1.671 2.004 1.22 2.769 3.384 2.192 5.586a4.599 4.599 0 01-2.181 2.796 7.91 7.91 0 01-3.582 1.118c-3.036.229-5.98-.168-8.756-1.478-.077-.036-.146-.083-.257-.152.257-1.084.515-2.171.788-3.332a11 11 0 004.815 1.74c1.084.108 2.174.132 3.26.062.932-.057 1.77-.43 2.06-1.445.291-1.014-.092-1.964-1.11-2.551-.772-.454-1.668-.74-2.513-1.09-1.357-.564-2.765-1.03-4.063-1.704-1.298-.675-2.297-1.783-2.575-3.312-.387-2.047.327-3.677 2.019-4.877a7.872 7.872 0 014.12-1.373c2.449-.172 4.905.25 7.156 1.228zm32.745 2.512h-5.532c0-.932-.018-1.802.024-2.696 0-.103.33-.258.515-.273 1.004-.028 2.013-.013 3.02-.013H88.08v2.964h-5.536v16.074h-3.945V4.235z" fill="#000"/><path d="M2.604 1.249h23.405c-.18.157-.286.257-.41.355L14.886 9.397c-.258.193-.474.337-.832.08A2961.243 2961.243 0 002.787 1.45a1.497 1.497 0 01-.183-.201z" fill="#21B193"/><path d="M94.438 9.917V3.67c1.648.07 3.316-.258 4.939.218 1.287.371 2.006 1.695 1.895 3.194-.106 1.426-.95 2.449-2.271 2.716a5.86 5.86 0 01-1.082.114c-1.15.013-2.3.005-3.481.005z" fill="#F8F8F9"/></svg>