<svg width="49" height="34" fill="none" xmlns="http://www.w3.org/2000/svg"><g clip-path="url(#clip0_458_257)"><path d="M48.123 3.414v27.928a2.36 2.36 0 01-.52 1.478 2.344 2.344 0 01-1.827.874H2.543a2.343 2.343 0 01-1.825-.875A2.356 2.356 0 01.2 31.342V3.414c0-.624.247-1.222.687-1.663a2.34 2.34 0 011.657-.689H45.78a2.34 2.34 0 011.657.69c.44.44.687 1.038.687 1.662z" fill="#09092C"/><path d="M29.546 17.788l18.577 13.147V3.895L29.546 17.788zM18.9 17.663L.2 3.895v27.04l18.7-13.272z" fill="#5C5C76"/><path d="M26.155 20.433a3.56 3.56 0 01-3.988 0l-3.018-2.432L.199 31.056v.389a2.28 2.28 0 00.535 1.43c.337.4.801.672 1.315.769.164.034.33.05.497.05h43.233c.167 0 .333-.016.496-.05a2.266 2.266 0 001.315-.77c.336-.4.524-.906.533-1.43v-.388L29.26 18.059l-3.105 2.374z" fill="#5C5C76" fill-opacity=".9"/><path d="M45.779 1.062H2.543C1.248 1.062.2 2.06.2 3.291v.455l21.968 15.6a3.583 3.583 0 003.988 0l21.968-15.6v-.455c0-1.232-1.05-2.229-2.344-2.229z" fill="#6F6F86"/></g><defs><clipPath id="clip0_458_257"><path fill="#fff" transform="translate(.038 .787)" d="M0 0h48.175v32.979H0z"/></clipPath></defs></svg>